<?xml version="1.0" encoding="utf-8"?>
<!-- Generator: Adobe Illustrator 25.0.1, SVG Export Plug-In . SVG Version: 6.00 Build 0)  -->
<svg version="1.1" id="Layer_1" xmlns="http://www.w3.org/2000/svg" xmlns:xlink="http://www.w3.org/1999/xlink" x="0px" y="0px"
	 viewBox="0 0 630.25 344.18" style="enable-background:new 0 0 630.25 344.18;" xml:space="preserve">
<style type="text/css">
	.st0{fill:#A9CC48;}
	.st1{opacity:0.61;}
	.st2{fill:#AAD339;}
	.st3{fill:#7E8952;}
	.st4{fill:#BBCE76;}
	.st5{fill:#FFFFF2;}
	.st6{fill:#546223;}
	.st7{fill:#84BD00;}
	.st8{fill:#7FAD00;}
	.st9{fill:#F7F9F2;}
</style>
<g>
	<g>
		<g>
			<polygon class="st0" points="617.16,75.55 630.25,90.99 610.03,91.99 599.39,109.21 592.2,90.29 572.53,85.49 588.3,72.8 
				586.79,52.62 603.73,63.7 622.46,56.02 			"/>
			<path class="st0" d="M589.84,110.55c-9.1,7.74-17.59,16.28-25.28,25.57c-7.73,9.26-14.57,19.32-20.62,29.9
				c-0.78,1.31-1.49,2.66-2.21,4.01c-0.71,1.35-1.46,2.68-2.14,4.05c-1.34,2.74-2.75,5.47-3.98,8.27
				c-2.57,5.57-4.87,11.27-6.93,17.08c-4.16,11.61-9.33,23.41-11.51,35.67l0,0c0.71-12.6,1.42-25.34,4.27-37.77
				c1.41-6.22,3.07-12.4,5.05-18.5c0.94-3.07,2.05-6.08,3.12-9.11c0.55-1.51,1.16-3,1.73-4.5c0.59-1.5,1.16-3.01,1.81-4.48
				c5.02-11.87,11.01-23.42,18.1-34.34c7.05-10.95,15.13-21.3,24.06-30.94l11.09,4.26L589.84,110.55z"/>
		</g>
		<g>
			<polygon class="st0" points="606.25,155.04 614.13,169.02 598.24,166.78 587.39,178.6 584.61,162.79 570.01,156.13 584.18,148.6 
				586.01,132.65 597.56,143.8 613.29,140.62 			"/>
			<path class="st0" d="M580.32,173.89c-6.01,3.4-11.76,7.33-17.14,11.77c-5.4,4.42-10.38,9.39-14.96,14.74
				c-0.59,0.66-1.13,1.35-1.69,2.03c-0.55,0.69-1.12,1.37-1.66,2.07c-1.06,1.41-2.15,2.81-3.16,4.26c-2.07,2.88-3.99,5.87-5.79,8.95
				c-3.63,6.14-7.85,12.28-10.41,19.01l0,0c1.78-7.08,3.56-14.23,6.53-20.98c1.47-3.38,3.09-6.71,4.88-9.95
				c0.87-1.64,1.83-3.23,2.76-4.83c0.47-0.8,0.98-1.58,1.47-2.37c0.5-0.79,0.99-1.58,1.52-2.35c4.14-6.19,8.8-12.1,14.01-17.53
				c5.2-5.45,10.91-10.45,17.03-14.95l5.84,3.63L580.32,173.89z"/>
		</g>
		<g>
			<polygon class="st0" points="548.43,18.45 531.75,19.69 543.91,32.05 541.18,48.14 556.06,41.47 571.05,50.18 568.08,33.7 
				580.08,22.99 563.37,19.47 555.79,4.14 			"/>
			<path class="st0" d="M549.66,51.51c1.08,7.11,1.57,14.3,1.39,21.46c-0.15,7.17-1.03,14.29-2.48,21.29
				c-0.16,0.88-0.38,1.75-0.59,2.62c-0.21,0.87-0.4,1.74-0.63,2.61c-0.48,1.72-0.92,3.46-1.48,5.16c-1.04,3.42-2.27,6.79-3.64,10.1
				c-2.72,6.63-5.06,13.77-8.96,19.83l0,0c4.7-5.58,9.46-11.21,13.12-17.63c1.84-3.2,3.54-6.5,5.07-9.89
				c0.8-1.68,1.49-3.42,2.21-5.14c0.35-0.87,0.67-1.75,1-2.62c0.33-0.88,0.67-1.75,0.96-2.65c2.43-7.1,4.3-14.49,5.41-22.08
				c1.14-7.58,1.56-15.35,1.32-23.19l-6.79-2.93L549.66,51.51z"/>
		</g>
		<g>
			<polygon class="st0" points="481.28,23.64 458.58,32.37 479.31,45.07 480.59,69.35 499.08,53.57 522.57,59.85 513.27,37.38 
				526.51,16.99 502.27,18.89 486.96,0 			"/>
			<path class="st0" d="M492.29,74.03c4.69,12.27,8.38,25,10.9,38.03c2.57,13.02,3.86,26.34,4.11,39.75
				c0.06,1.68,0.03,3.35,0.02,5.03c-0.03,1.68-0.01,3.36-0.07,5.04c-0.15,3.36-0.24,6.73-0.53,10.09
				c-0.46,6.73-1.26,13.45-2.34,20.15c-2.11,13.4-3.35,27.52-7.73,40.51l0,0c5.97-12.54,12.01-25.21,15.82-38.71
				c1.93-6.75,3.59-13.59,4.9-20.52c0.72-3.46,1.23-6.95,1.8-10.44c0.27-1.75,0.47-3.5,0.7-5.26c0.23-1.76,0.47-3.51,0.61-5.28
				c1.42-14.11,1.74-28.42,0.67-42.71c-1.03-14.29-3.36-28.55-6.88-42.57l-12.96-1.75L492.29,74.03z"/>
		</g>
		<g>
			<polygon class="st0" points="450.67,96.17 435.8,107.4 453.76,112.37 459.84,129.97 470.12,114.43 488.74,114.09 477.14,99.51 
				482.57,81.69 465.12,88.23 449.85,77.56 			"/>
			<path class="st0" d="M469.54,128.23c4.82,6.4,9.13,13.24,12.8,20.46c3.7,7.2,6.7,14.79,9.11,22.61c0.32,0.97,0.58,1.96,0.86,2.95
				c0.27,0.99,0.56,1.97,0.81,2.97c0.48,1.99,1,3.98,1.39,6c0.87,4.02,1.53,8.1,2.03,12.2c1.02,8.21,2.67,16.7,2.29,25.05l0,0
				c1.38-8.36,2.79-16.8,2.75-25.36c-0.01-4.28-0.19-8.57-0.59-12.86c-0.16-2.15-0.45-4.28-0.7-6.42c-0.14-1.07-0.32-2.13-0.47-3.2
				c-0.16-1.07-0.32-2.14-0.53-3.2c-1.54-8.51-3.77-16.96-6.81-25.15c-3.01-8.21-6.78-16.17-11.21-23.8l-7.89,1.16L469.54,128.23z"
				/>
		</g>
	</g>
	<g class="st1">
		<g>
			<g>
				<path class="st2" d="M270.96,271.38l-3.16-0.84c0.64-2.41,2.37-3.31,3.63-3.96c1.15-0.59,1.72-0.92,1.97-1.89
					c0.26-0.97-0.07-1.53-0.78-2.62c-0.77-1.19-1.84-2.82-1.2-5.24c0.64-2.41,2.37-3.31,3.63-3.96c1.15-0.59,1.72-0.92,1.97-1.89
					c0.26-0.97-0.07-1.53-0.78-2.62c-0.78-1.19-1.84-2.82-1.2-5.24c0.64-2.41,2.37-3.31,3.63-3.96c1.15-0.59,1.71-0.92,1.97-1.89
					l3.16,0.84c-0.64,2.41-2.37,3.31-3.63,3.96c-1.15,0.59-1.72,0.92-1.97,1.89c-0.26,0.97,0.07,1.53,0.78,2.62
					c0.78,1.19,1.84,2.82,1.2,5.24c-0.64,2.41-2.37,3.31-3.63,3.96c-1.15,0.59-1.72,0.92-1.97,1.89c-0.26,0.97,0.07,1.53,0.78,2.62
					c0.77,1.19,1.84,2.82,1.2,5.24c-0.64,2.41-2.37,3.31-3.63,3.96C271.79,270.08,271.22,270.41,270.96,271.38z"/>
			</g>
			<g>
				<path class="st3" d="M213.8,210.65l-2.66,1.89c-1.44-2.04-1.02-3.94-0.71-5.33c0.28-1.26,0.39-1.91-0.19-2.73
					c-0.58-0.82-1.22-0.93-2.51-1.08c-1.41-0.17-3.34-0.4-4.79-2.44c-1.44-2.04-1.02-3.94-0.71-5.32c0.28-1.26,0.39-1.91-0.19-2.72
					c-0.58-0.82-1.22-0.93-2.51-1.08c-1.41-0.17-3.34-0.4-4.79-2.43c-1.44-2.04-1.02-3.94-0.71-5.32c0.28-1.26,0.39-1.91-0.19-2.72
					l2.66-1.89c1.44,2.04,1.02,3.94,0.71,5.32c-0.28,1.26-0.39,1.91,0.19,2.72c0.58,0.82,1.22,0.93,2.51,1.08
					c1.41,0.17,3.34,0.4,4.79,2.43c1.44,2.04,1.02,3.94,0.71,5.32c-0.28,1.26-0.39,1.91,0.19,2.72c0.58,0.82,1.22,0.93,2.51,1.08
					c1.41,0.17,3.34,0.4,4.79,2.44c1.44,2.04,1.02,3.94,0.71,5.33C213.33,209.19,213.22,209.83,213.8,210.65z"/>
			</g>
			<g>
				<path class="st3" d="M580.06,300.82l-2.48-2.13c1.63-1.9,3.57-1.95,4.99-1.99c1.29-0.03,1.95-0.08,2.6-0.85
					c0.65-0.76,0.6-1.41,0.44-2.7c-0.18-1.41-0.43-3.34,1.2-5.24c1.62-1.9,3.57-1.95,4.99-1.98c1.29-0.03,1.95-0.08,2.6-0.84
					c0.65-0.76,0.6-1.41,0.44-2.7c-0.18-1.41-0.43-3.34,1.2-5.24c1.62-1.9,3.57-1.95,4.99-1.98c1.29-0.03,1.94-0.08,2.6-0.84
					l2.48,2.13c-1.62,1.9-3.57,1.95-4.99,1.98c-1.29,0.03-1.95,0.08-2.6,0.84c-0.65,0.76-0.6,1.41-0.44,2.7
					c0.18,1.41,0.43,3.34-1.2,5.24c-1.63,1.9-3.57,1.95-4.99,1.98c-1.29,0.03-1.95,0.08-2.6,0.84c-0.65,0.76-0.6,1.41-0.44,2.7
					c0.18,1.41,0.43,3.34-1.2,5.24c-1.63,1.9-3.57,1.95-4.99,1.99C581.37,300.01,580.72,300.06,580.06,300.82z"/>
			</g>
			<g>
				<path class="st2" d="M348.43,132.7l2.47,2.14c-1.64,1.88-3.59,1.92-5.01,1.95c-1.29,0.03-1.95,0.07-2.6,0.83
					c-0.66,0.76-0.61,1.41-0.46,2.69c0.17,1.41,0.4,3.34-1.24,5.23c-1.64,1.88-3.58,1.92-5,1.95c-1.29,0.02-1.95,0.07-2.6,0.83
					c-0.66,0.76-0.61,1.41-0.46,2.69c0.17,1.41,0.4,3.34-1.24,5.23c-1.64,1.88-3.58,1.92-5.01,1.95c-1.29,0.02-1.95,0.07-2.6,0.83
					l-2.47-2.14c1.64-1.88,3.58-1.92,5-1.95c1.29-0.02,1.95-0.07,2.6-0.83c0.66-0.76,0.61-1.41,0.46-2.69
					c-0.17-1.41-0.4-3.34,1.24-5.23c1.64-1.88,3.58-1.92,5-1.95c1.29-0.02,1.95-0.07,2.6-0.83c0.66-0.76,0.61-1.41,0.46-2.69
					c-0.17-1.41-0.4-3.34,1.24-5.23c1.64-1.88,3.59-1.92,5.01-1.95C347.12,133.51,347.78,133.46,348.43,132.7z"/>
			</g>
			<g>
				<path class="st2" d="M65.7,267.45l-1.26,3.01c-2.3-0.97-2.95-2.8-3.42-4.14c-0.43-1.22-0.68-1.83-1.6-2.22
					c-0.92-0.39-1.53-0.14-2.7,0.41c-1.29,0.6-3.05,1.43-5.35,0.46c-2.3-0.97-2.95-2.8-3.42-4.14c-0.43-1.22-0.68-1.83-1.6-2.21
					c-0.92-0.39-1.53-0.14-2.7,0.41c-1.29,0.6-3.05,1.43-5.35,0.46c-2.3-0.97-2.95-2.8-3.42-4.14c-0.43-1.22-0.68-1.83-1.6-2.21
					l1.26-3.01c2.3,0.97,2.95,2.8,3.42,4.14c0.43,1.22,0.68,1.83,1.6,2.21c0.92,0.39,1.53,0.14,2.7-0.41
					c1.29-0.6,3.05-1.43,5.35-0.46c2.3,0.97,2.95,2.8,3.42,4.14c0.43,1.22,0.68,1.83,1.6,2.21c0.92,0.39,1.53,0.14,2.7-0.41
					c1.29-0.6,3.05-1.43,5.35-0.46c2.3,0.97,2.95,2.8,3.42,4.14C64.52,266.46,64.77,267.06,65.7,267.45z"/>
			</g>
			<g>
				<path class="st3" d="M80.56,189.53l-3.27-0.07c0.05-2.5,1.52-3.77,2.59-4.71c0.98-0.85,1.45-1.3,1.47-2.3
					c0.02-1-0.43-1.47-1.37-2.36c-1.03-0.97-2.45-2.31-2.4-4.81c0.05-2.5,1.52-3.77,2.59-4.7c0.98-0.85,1.45-1.3,1.47-2.3
					c0.02-1-0.43-1.47-1.37-2.36c-1.03-0.97-2.45-2.31-2.4-4.81c0.05-2.5,1.52-3.77,2.59-4.7c0.98-0.85,1.45-1.3,1.47-2.3l3.27,0.07
					c-0.05,2.5-1.52,3.77-2.59,4.7c-0.98,0.85-1.45,1.3-1.47,2.3c-0.02,1,0.43,1.47,1.37,2.36c1.03,0.97,2.45,2.31,2.4,4.81
					c-0.05,2.5-1.52,3.77-2.59,4.7c-0.98,0.85-1.45,1.3-1.47,2.3c-0.02,1,0.43,1.47,1.37,2.36c1.03,0.97,2.45,2.31,2.4,4.81
					s-1.52,3.77-2.59,4.71C81.06,188.08,80.59,188.53,80.56,189.53z"/>
			</g>
		</g>
		<g>
			
				<rect x="310.38" y="191.86" transform="matrix(0.8952 -0.4458 0.4458 0.8952 -55.504 160.1807)" class="st2" width="4.74" height="12.44"/>
			
				<rect x="5.57" y="187.94" transform="matrix(0.8952 -0.4458 0.4458 0.8952 -85.7176 23.8954)" class="st4" width="4.74" height="12.44"/>
			
				<rect x="551.88" y="239.47" transform="matrix(0.8951 -0.4458 0.4458 0.8951 -51.4053 272.8311)" class="st4" width="4.74" height="12.44"/>
			
				<rect x="401.19" y="306.42" transform="matrix(0.7671 0.6415 -0.6415 0.7671 294.5362 -186.0762)" class="st4" width="4.74" height="12.44"/>
			
				<rect x="28.45" y="306.6" transform="matrix(0.8952 -0.4458 0.4458 0.8952 -136.2128 46.5351)" class="st2" width="4.74" height="12.44"/>
			
				<rect x="240.17" y="115.86" transform="matrix(0.7297 0.6837 -0.6837 0.7297 149.0186 -132.834)" class="st3" width="4.74" height="12.44"/>
			
				<rect x="611.16" y="197.76" transform="matrix(0.7297 0.6837 -0.6837 0.7297 305.2754 -364.3566)" class="st3" width="4.74" height="12.44"/>
			
				<rect x="136.23" y="320.69" transform="matrix(0.7904 0.6126 -0.6126 0.7904 229.3132 -16.3825)" class="st2" width="4.74" height="12.44"/>
			
				<rect x="343.33" y="258.02" transform="matrix(0.8894 0.4572 -0.4572 0.8894 159.0488 -128.8142)" class="st4" width="4.74" height="12.44"/>
			
				<rect x="401.51" y="174.4" transform="matrix(0.4572 -0.8894 0.8894 0.4572 64.1137 458.5787)" class="st5" width="12.44" height="4.74"/>
			
				<rect x="143.61" y="130.83" transform="matrix(-0.6126 0.7904 -0.7904 -0.6126 343.7343 105.6258)" class="st3" width="4.74" height="12.44"/>
			
				<rect x="574.69" y="81.47" transform="matrix(-0.6126 0.7904 -0.7904 -0.6126 999.8584 -314.6972)" class="st3" width="4.74" height="12.44"/>
			
				<rect x="139.96" y="232.8" transform="matrix(0.5705 0.8213 -0.8213 0.5705 257.4393 -14.2314)" class="st4" width="4.74" height="12.44"/>
			
				<rect x="551.52" y="133.81" transform="matrix(0.5705 0.8213 -0.8213 0.5705 352.919 -394.7674)" class="st4" width="4.74" height="12.44"/>
			
				<rect x="618.63" y="330.02" transform="matrix(0.5705 0.8213 -0.8213 0.5705 542.8958 -365.6127)" class="st4" width="4.74" height="12.44"/>
		</g>
	</g>
	<g>
		<g>
			<g>
				<g>
					<g>
						<path class="st6" d="M116.09,339.81c-5.5-1.04-5.06-2.17-3.97-3.12c23.07-14.24,41.74-30.23,40.61-49.27
							c-0.38-6.42-4.62-16.88-3-14.66C211.02,356.62,128.8,341.83,116.09,339.81 M417.64,315.16h-48.33
							c0.66,9.62,9.18,14.98,17.38,14.87c11.75,0,9.33-8.09,29.2-8.09c-2.84,6.67-7.11,11.7-12.14,15.09
							c-5.03,3.5-10.93,5.25-17.16,5.25c-18.48,0-31.71-14.98-31.71-31.71c0-17.06,13.34-32.04,31.49-32.04
							c8.97,0,16.84,3.39,22.41,9.18C416.1,295.26,418.84,304.66,417.64,315.16 M369.66,303.77h33.95
							c-0.55-5.68-6.55-13.65-17.03-13.54C375.99,290.23,370.2,297.88,369.66,303.77 M567.98,291.62v48.28c0,0-14.3,1.46-14.3-8.62
							c-3.82,6.99-11.79,10.48-20.2,10.48c-19.21,0-30.46-14.95-30.46-31.87c0-18.88,13.64-31.77,30.46-31.77
							c10.91,0,17.57,5.78,20.2,10.59v-8.73C567.77,279.97,567.98,291.62,567.98,291.62 M517.33,310.1
							c0,7.53,5.35,18.34,18.23,18.34c7.97,0,13.21-4.15,15.94-9.6c1.42-2.62,2.07-5.46,2.29-8.41c0.11-2.84-0.44-5.78-1.64-8.41
							c-2.51-5.68-8.07-10.59-16.7-10.59C523.89,291.44,517.33,300.82,517.33,310.1 M265.82,330.7c0,10.3,14.3,9.2,14.3,9.2v-30.39
							c0-10.37,5.13-16.99,15.17-16.99h0.65v-12.48c-9.06,0.11-13.97,3.95-16.59,9.3c0,0-2.47-9.37-13.54-9.37V330.7L265.82,330.7z
							 M358.24,279.97c-15.8,0-17.52,8-17.52,8l-11.73,33.92l-10.69-31.33c0,0-3.45-10.59-18.56-10.59
							c5.62,15.76,18.39,49.57,18.39,49.57c5.15,12.42,17.85,10.35,17.85,10.35L358.24,279.97L358.24,279.97z M465.78,296.13
							c-1.2-14.41-13.21-18.01-21.29-18.01c-11.57,0-21.51,7.31-21.51,19.1c0.11,8.63,6.66,13.1,14.74,15.61
							c11.03,3.82,15.5,5.24,15.5,10.37c0.11,4.04-3.71,6.99-8.19,6.99c-10.55,0-6-7.75-23.14-7.75
							c1.09,14.52,13.65,19.32,22.93,19.32c12.55,0,22.92-7.86,22.7-20.19c-0.11-12.88-10.48-15.72-20.08-18.34
							c-5.68-1.64-10.04-3.71-10.15-7.53c0-2.95,2.29-6,7.09-6C449.95,289.69,452.1,296.13,465.78,296.13 M478.84,331.67
							c0,9.39,14.3,8.23,14.3,8.23V291h10.26v-11.03h-10.26v-11.11c0,0,1.09-9.74-14.3-9.74v20.85h-9.93c0,0-2.57,11.03,9.93,11.03
							V331.67L478.84,331.67z M259.49,291.62v48.28c0,0-14.3,1.46-14.3-8.62c-3.82,6.99-11.79,10.48-20.19,10.48
							c-19.21,0-30.46-14.95-30.46-31.87c0-18.88,13.65-31.77,30.46-31.77c10.92,0,17.58,5.78,20.19,10.59v-8.73
							C259.28,279.97,259.49,291.62,259.49,291.62 M208.84,310.1c0,7.53,5.35,18.34,18.23,18.34c7.97,0,13.21-4.15,15.94-9.6
							c1.42-2.62,2.07-5.46,2.29-8.41c0.11-2.84-0.44-5.78-1.64-8.41c-2.51-5.68-8.08-10.59-16.7-10.59
							C215.39,291.44,208.84,300.82,208.84,310.1"/>
						<path class="st7" d="M141.61,257.35c37.24,63.38-118.23,91.3-128.99,86.25c27.88-15.2,63.15-87.48,95.49-100.68
							C119.83,238.15,131.16,241.12,141.61,257.35"/>
					</g>
				</g>
			</g>
			<g>
				<g>
					<polygon class="st8" points="282.3,165.53 283.95,163.98 283.95,165.53 					"/>
					<polygon class="st8" points="285.66,160.04 277.98,167.24 285.66,167.24 285.66,160.04 					"/>
				</g>
				<g>
					<g>
						<polygon class="st8" points="355.31,135.35 356.97,133.8 356.97,135.35 						"/>
						<polygon class="st8" points="358.67,129.86 350.99,137.06 358.67,137.06 358.67,129.86 						"/>
					</g>
					<g>
						<g>
							<polygon class="st8" points="317.98,241.97 317.98,143.06 287.37,164 287.37,134.71 329.57,105.84 350.53,105.84 
								350.53,241.97 							"/>
							<path class="st8" d="M348.83,107.55v132.71h-29.14V146.3v-6.47l-5.34,3.65l-25.27,17.29v-25.16l41.03-28.06H348.83
								 M352.24,104.13h-23.19l-43.38,29.67v33.43l30.61-20.94v97.38h35.96V104.13L352.24,104.13z"/>
						</g>
						<g>
							<path class="st8" d="M360.38,241.97v-16.89l39.28-45.59c5.59-6.86,9.61-12.76,11.97-17.58c2.42-4.95,3.64-9.67,3.64-14.03
								c0-6.06-2.12-10.63-6.3-13.59c-4.05-2.87-10.34-4.26-19.24-4.26c-5.46,0-11.07,0.5-16.67,1.48
								c-4.6,0.82-8.86,1.88-12.68,3.16v-25.25c4.04-1.3,9.07-2.4,14.97-3.29c6.47-0.98,12.63-1.48,18.33-1.48
								c18.12,0,31.78,3.27,40.6,9.71c2.54,1.86,4.74,4.05,6.54,6.53c-13.26,14.53-20.54,33.31-20.54,53.04
								c0,6.75,0.86,13.44,2.54,19.92l-18.66,21.97h28.17c5.59,8.9,12.78,16.48,21.38,22.54v3.61H360.38z"/>
							<path class="st8" d="M393.68,106.35c17.75,0,31.08,3.16,39.59,9.38c2.02,1.48,3.81,3.18,5.33,5.07
								c-12.94,14.69-20.04,33.45-20.04,53.13c0,6.59,0.8,13.14,2.38,19.49l-15.7,18.49l-4.78,5.63h7.38h23.54
								c5.42,8.4,12.5,15.85,20.61,21.71v1.02h-89.91v-14.55l38.86-45.11l0.03-0.04l0.03-0.04c5.64-6.93,9.73-12.94,12.15-17.87
								c2.53-5.18,3.81-10.15,3.81-14.78c0-6.65-2.36-11.69-7.02-14.98c-4.35-3.08-10.97-4.57-20.23-4.57
								c-5.56,0-11.27,0.51-16.97,1.5c-3.8,0.68-7.37,1.52-10.67,2.51v-21.66c3.74-1.11,8.27-2.07,13.52-2.86
								C381.98,106.85,388.06,106.35,393.68,106.35 M393.68,102.94c-5.76,0-11.96,0.49-18.59,1.5c-6.63,1-12.1,2.25-16.42,3.75v28.9
								c4.32-1.63,9.22-2.93,14.69-3.9c5.48-0.96,10.94-1.45,16.37-1.45c8.44,0,14.53,1.31,18.26,3.95
								c3.71,2.62,5.57,6.69,5.57,12.19c0,4.13-1.16,8.56-3.47,13.28c-2.32,4.72-6.23,10.46-11.73,17.22l-39.69,46.07v19.23h96.73
								v-6.21c-8.92-6.14-16.48-14.1-22.13-23.35h-25.42l16.85-19.84c-1.77-6.48-2.72-13.3-2.72-20.34
								c0-20.48,7.99-39.09,21.02-52.89c-2.05-3.12-4.63-5.81-7.72-8.07C426.12,106.28,412.25,102.94,393.68,102.94L393.68,102.94z"
								/>
						</g>
						<g>
							<path class="st8" d="M497.82,241.97c-37.86,0-68.66-30.8-68.66-68.66s30.8-68.66,68.66-68.66s68.66,30.8,68.66,68.66
								S535.68,241.97,497.82,241.97z M497.82,130c-23.89,0-43.32,19.43-43.32,43.31c0,23.89,19.43,43.32,43.32,43.32
								c23.89,0,43.32-19.43,43.32-43.32C541.14,149.43,521.71,130,497.82,130z"/>
							<path class="st8" d="M497.82,106.35c36.92,0,66.95,30.04,66.95,66.95s-30.04,66.95-66.95,66.95s-66.95-30.04-66.95-66.95
								S460.9,106.35,497.82,106.35 M497.82,218.33c24.83,0,45.03-20.2,45.03-45.03c0-24.82-20.2-45.01-45.03-45.01
								c-24.83,0-45.03,20.19-45.03,45.01C452.8,198.14,472.99,218.33,497.82,218.33 M497.82,102.94
								c-38.86,0-70.37,31.51-70.37,70.37c0,38.87,31.51,70.37,70.37,70.37c38.86,0,70.37-31.5,70.37-70.37
								C568.19,134.45,536.68,102.94,497.82,102.94L497.82,102.94z M497.82,214.92c-22.98,0-41.61-18.63-41.61-41.61
								c0-22.98,18.63-41.6,41.61-41.6c22.98,0,41.61,18.62,41.61,41.6C539.43,196.29,520.8,214.92,497.82,214.92L497.82,214.92z"/>
						</g>
					</g>
					<g>
						<g>
							<polygon class="st9" points="309.87,242.4 309.87,143.87 279.26,164.81 279.26,134.48 321.76,105.41 343.28,105.41 
								343.28,242.4 							"/>
							<path class="st7" d="M342,106.69v134.42h-30.84V146.3v-4.85l-4.01,2.74l-26.61,18.2v-27.22l41.61-28.46H342 M344.56,104.13
								h-23.19l-43.38,29.67v33.43l30.61-20.94v97.38h35.96V104.13L344.56,104.13z"/>
						</g>
						<g>
							<path class="st9" d="M352.27,242.39v-17.47l39.38-45.71c5.56-6.83,9.56-12.7,11.91-17.49c2.39-4.89,3.6-9.54,3.6-13.85
								c0-5.92-2.06-10.37-6.12-13.24c-3.98-2.81-10.19-4.18-19-4.18c-5.44,0-11.02,0.49-16.59,1.47
								c-4.81,0.85-9.23,1.98-13.18,3.34v-26.16c4.11-1.35,9.26-2.49,15.33-3.4c6.49-0.99,12.68-1.48,18.4-1.48
								c18.22,0,31.96,3.29,40.85,9.79c2.68,1.96,4.97,4.28,6.84,6.91c-13.34,14.49-20.67,33.27-20.67,53.01
								c0,6.78,0.87,13.52,2.59,20.03l-18.21,21.44h27.48c5.55,8.89,12.98,16.73,21.57,22.74v4.26H352.27z"/>
							<path class="st7" d="M385.99,105.5c17.94,0,31.43,3.21,40.1,9.54c2.28,1.67,4.27,3.61,5.94,5.79
								c-13.1,14.61-20.3,33.39-20.3,53.1c0,6.67,0.83,13.29,2.46,19.7l-15.99,18.82l-3.58,4.22h5.54h24
								c5.48,8.6,12.69,16.2,20.99,22.12v2.31h-91.61v-15.72l39.07-45.35l0.02-0.03l0.02-0.03c5.6-6.88,9.65-12.83,12.05-17.71
								c2.47-5.06,3.73-9.91,3.73-14.41c0-6.36-2.24-11.16-6.66-14.28c-4.2-2.97-10.66-4.42-19.74-4.42
								c-5.51,0-11.17,0.5-16.82,1.49c-4.2,0.75-8.11,1.69-11.68,2.83v-23.45c3.89-1.2,8.67-2.24,14.24-3.07
								C374.21,106,380.34,105.5,385.99,105.5 M385.99,102.94c-5.76,0-11.96,0.49-18.59,1.5c-6.63,1-12.1,2.25-16.42,3.75v28.9
								c4.32-1.63,9.22-2.93,14.69-3.9c5.48-0.96,10.94-1.45,16.37-1.45c8.44,0,14.53,1.31,18.26,3.95
								c3.71,2.62,5.57,6.69,5.57,12.19c0,4.13-1.16,8.56-3.47,13.28c-2.32,4.72-6.23,10.46-11.73,17.22l-39.69,46.07v19.23h96.73
								v-6.21c-8.92-6.14-16.48-14.1-22.13-23.35h-25.42l16.85-19.84c-1.77-6.48-2.72-13.3-2.72-20.34
								c0-20.48,7.99-39.09,21.02-52.89c-2.05-3.12-4.63-5.81-7.72-8.07C418.43,106.28,404.57,102.94,385.99,102.94L385.99,102.94z"
								/>
						</g>
						<g>
							<path class="st9" d="M490.14,242.4c-38.09,0-69.09-30.99-69.09-69.09s30.99-69.09,69.09-69.09s69.09,30.99,69.09,69.09
								S528.23,242.4,490.14,242.4z M490.14,130.43c-23.65,0-42.89,19.24-42.89,42.88c0,23.65,19.24,42.89,42.89,42.89
								c23.65,0,42.89-19.24,42.89-42.89C533.03,149.66,513.79,130.43,490.14,130.43z"/>
							<path class="st7" d="M490.14,105.5c37.39,0,67.81,30.42,67.81,67.81s-30.42,67.81-67.81,67.81s-67.81-30.42-67.81-67.81
								S452.75,105.5,490.14,105.5 M490.14,217.48c24.36,0,44.17-19.82,44.17-44.17c0-24.35-19.82-44.16-44.17-44.16
								c-24.36,0-44.17,19.81-44.17,44.16C445.97,197.66,465.78,217.48,490.14,217.48 M490.14,102.94
								c-38.86,0-70.37,31.51-70.37,70.37c0,38.87,31.51,70.37,70.37,70.37c38.86,0,70.37-31.5,70.37-70.37
								C560.51,134.45,529,102.94,490.14,102.94L490.14,102.94z M490.14,214.92c-22.98,0-41.61-18.63-41.61-41.61
								c0-22.98,18.63-41.6,41.61-41.6c22.98,0,41.61,18.62,41.61,41.6C531.75,196.29,513.12,214.92,490.14,214.92L490.14,214.92z"
								/>
						</g>
					</g>
				</g>
			</g>
		</g>
	</g>
</g>
</svg>
