<?xml version="1.0" encoding="UTF-8"?>
<svg width="181px" height="331px" viewBox="0 0 181 331" version="1.1" xmlns="http://www.w3.org/2000/svg" xmlns:xlink="http://www.w3.org/1999/xlink">
    <title>Group</title>
    <g id="Page-1" stroke="none" stroke-width="1" fill="none" fill-rule="evenodd">
        <g id="Group" transform="translate(0.970000, 0.073000)" fill-rule="nonzero">
            <path d="M81.1,310.763 L54.93,310.763 L54.93,286.606 C54.97,282.393 55.53,279.124 56.6,276.798 C58.5,272.631 62.01,270.545 67.12,270.545 C73.15,270.545 77.24,272.696 79.37,276.996 C80.52,279.366 81.1,282.679 81.1,286.935 L81.1,310.763 Z M38.68,310.763 L17.04,310.763 L17.04,289.413 C17.04,284.712 17.56,280.846 18.58,277.815 C20.04,274.3 23.06,272.543 27.63,272.543 C31.76,272.543 34.63,273.873 36.25,276.53 C37.87,279.188 38.68,282.647 38.68,286.909 L38.68,310.763 Z M91.89,261.158 C89.8,258.378 87.22,256.061 84.16,254.207 C79.54,251.295 74.33,249.838 68.51,249.838 C62.88,249.838 58.08,251.112 54.13,253.661 C50.18,256.21 47.3,259.99 45.47,264.998 C43.79,261.701 41.92,259.206 39.88,257.513 C36.24,254.483 31.43,252.967 25.43,252.967 C19.62,252.967 14.63,254.47 10.45,257.472 C3.66,262.462 0.18,270.941 0,282.908 L0,330.338 L98.14,330.338 L98.14,286.116 C98.14,281.129 97.7,276.507 96.81,272.247 C95.92,267.988 94.28,264.292 91.89,261.158" id="Shape" fill="#000000"></path>
            <polygon id="Path" fill="#000000" points="0 154.321 0 180.821 40.44 218.741 0 218.741 0 238.916 98.14 238.916 98.14 218.741 65.32 218.741 55.3 208.864 98.14 178.625 98.14 152.257 40.36 194.597"></polygon>
            <polygon id="Path" fill="#000000" points="78.33 0 78.33 19.828 118.79 19.828 118.79 330.338 138.63 330.338 138.63 19.828 179.09 19.828 179.09 0"></polygon>
            <rect id="Rectangle" fill="#0064CC" x="159.25" y="39.664" width="19.834" height="290.674"></rect>
            <polygon id="Path" fill="#000000" points="78.33 143.579 98.17 129.058 98.17 39.662 78.33 39.662"></polygon>
        </g>
    </g>
</svg>