<?xml version="1.0" encoding="UTF-8" standalone="no"?>
<!DOCTYPE svg PUBLIC "-//W3C//DTD SVG 1.1//EN" "http://www.w3.org/Graphics/SVG/1.1/DTD/svg11.dtd">
<svg width="100%" height="100%" viewBox="0 0 876 370" version="1.1" xmlns="http://www.w3.org/2000/svg" xmlns:xlink="http://www.w3.org/1999/xlink" xml:space="preserve" xmlns:serif="http://www.serif.com/" style="fill-rule:evenodd;clip-rule:evenodd;stroke-linejoin:round;stroke-miterlimit:2;">
    <g transform="matrix(1,0,0,1,0,-1165)">
        <g id="logo" transform="matrix(0.405556,0,0,0.215618,0,1165)">
            <rect x="0" y="0" width="2160" height="1716" style="fill:none;"/>
            <g id="Layer-1" serif:id="Layer 1" transform="matrix(2.46575,0,0,4.63784,-2524.93,-5403.08)">
                <g>
                    <g transform="matrix(76,0,0,76,1557.93,1300.45)">
                        <path d="M0.318,0.006C0.265,0.006 0.218,-0.006 0.176,-0.029C0.134,-0.052 0.101,-0.085 0.078,-0.126C0.054,-0.167 0.042,-0.213 0.042,-0.265C0.042,-0.317 0.054,-0.364 0.078,-0.405C0.101,-0.446 0.134,-0.478 0.176,-0.501C0.218,-0.524 0.265,-0.535 0.318,-0.535C0.371,-0.535 0.418,-0.524 0.46,-0.501C0.501,-0.478 0.534,-0.446 0.558,-0.405C0.581,-0.364 0.593,-0.317 0.593,-0.265C0.593,-0.213 0.581,-0.167 0.558,-0.126C0.534,-0.085 0.501,-0.052 0.46,-0.029C0.418,-0.006 0.371,0.006 0.318,0.006ZM0.318,-0.078C0.352,-0.078 0.383,-0.086 0.41,-0.102C0.437,-0.117 0.458,-0.139 0.473,-0.168C0.488,-0.196 0.496,-0.228 0.496,-0.265C0.496,-0.302 0.488,-0.334 0.473,-0.363C0.458,-0.391 0.437,-0.413 0.41,-0.428C0.383,-0.443 0.352,-0.451 0.318,-0.451C0.284,-0.451 0.254,-0.443 0.227,-0.428C0.2,-0.413 0.178,-0.391 0.163,-0.363C0.147,-0.334 0.139,-0.302 0.139,-0.265C0.139,-0.228 0.147,-0.196 0.163,-0.168C0.178,-0.139 0.2,-0.117 0.227,-0.102C0.254,-0.086 0.284,-0.078 0.318,-0.078Z" style="fill:rgb(10,8,57);fill-rule:nonzero;"/>
                    </g>
                    <g transform="matrix(76,0,0,76,1605.92,1300.45)">
                        <path d="M0.372,-0.535C0.423,-0.535 0.469,-0.524 0.51,-0.501C0.551,-0.478 0.583,-0.447 0.606,-0.406C0.628,-0.365 0.64,-0.318 0.64,-0.265C0.64,-0.212 0.628,-0.165 0.606,-0.124C0.583,-0.083 0.551,-0.051 0.51,-0.028C0.469,-0.005 0.423,0.006 0.372,0.006C0.334,0.006 0.299,-0.001 0.268,-0.016C0.236,-0.031 0.209,-0.052 0.187,-0.08L0.187,0.194L0.091,0.194L0.091,-0.53L0.183,-0.53L0.183,-0.446C0.204,-0.475 0.231,-0.498 0.264,-0.513C0.297,-0.528 0.333,-0.535 0.372,-0.535ZM0.364,-0.078C0.398,-0.078 0.429,-0.086 0.456,-0.102C0.483,-0.117 0.504,-0.139 0.52,-0.168C0.535,-0.196 0.543,-0.228 0.543,-0.265C0.543,-0.302 0.535,-0.334 0.52,-0.363C0.504,-0.391 0.483,-0.413 0.456,-0.428C0.429,-0.443 0.398,-0.451 0.364,-0.451C0.331,-0.451 0.301,-0.443 0.274,-0.428C0.247,-0.412 0.225,-0.39 0.21,-0.362C0.194,-0.334 0.186,-0.302 0.186,-0.265C0.186,-0.228 0.194,-0.196 0.209,-0.168C0.224,-0.139 0.246,-0.117 0.273,-0.102C0.3,-0.086 0.331,-0.078 0.364,-0.078Z" style="fill:rgb(10,8,57);fill-rule:nonzero;"/>
                    </g>
                    <g transform="matrix(76,0,0,76,1657.49,1300.45)">
                        <path d="M0.57,-0.262C0.57,-0.255 0.569,-0.245 0.568,-0.233L0.138,-0.233C0.144,-0.186 0.165,-0.149 0.2,-0.121C0.235,-0.092 0.278,-0.078 0.33,-0.078C0.393,-0.078 0.444,-0.099 0.483,-0.142L0.536,-0.08C0.512,-0.052 0.482,-0.031 0.447,-0.016C0.411,-0.001 0.371,0.006 0.327,0.006C0.271,0.006 0.221,-0.006 0.178,-0.029C0.135,-0.051 0.101,-0.084 0.078,-0.125C0.054,-0.166 0.042,-0.213 0.042,-0.265C0.042,-0.316 0.054,-0.363 0.077,-0.404C0.099,-0.445 0.131,-0.478 0.172,-0.501C0.212,-0.524 0.257,-0.535 0.308,-0.535C0.359,-0.535 0.404,-0.524 0.444,-0.501C0.483,-0.478 0.514,-0.445 0.537,-0.404C0.559,-0.363 0.57,-0.315 0.57,-0.262ZM0.308,-0.454C0.262,-0.454 0.224,-0.44 0.193,-0.412C0.162,-0.384 0.143,-0.347 0.138,-0.302L0.478,-0.302C0.473,-0.347 0.455,-0.383 0.424,-0.412C0.393,-0.44 0.354,-0.454 0.308,-0.454Z" style="fill:rgb(10,8,57);fill-rule:nonzero;"/>
                    </g>
                    <g transform="matrix(76,0,0,76,1702.48,1300.45)">
                        <path d="M0.374,-0.535C0.441,-0.535 0.495,-0.516 0.535,-0.477C0.574,-0.438 0.594,-0.38 0.594,-0.305L0.594,-0L0.498,-0L0.498,-0.294C0.498,-0.345 0.486,-0.384 0.461,-0.41C0.436,-0.436 0.401,-0.449 0.355,-0.449C0.303,-0.449 0.262,-0.434 0.232,-0.404C0.202,-0.373 0.187,-0.33 0.187,-0.273L0.187,-0L0.091,-0L0.091,-0.53L0.183,-0.53L0.183,-0.45C0.202,-0.477 0.229,-0.498 0.262,-0.513C0.295,-0.528 0.332,-0.535 0.374,-0.535Z" style="fill:rgb(10,8,57);fill-rule:nonzero;"/>
                    </g>
                    <g transform="matrix(76,0,0,76,1557.93,1382.45)">
                        <path d="M0.243,0.006C0.2,0.006 0.158,0 0.118,-0.012C0.078,-0.023 0.047,-0.038 0.024,-0.056L0.064,-0.132C0.087,-0.115 0.116,-0.102 0.149,-0.092C0.182,-0.082 0.216,-0.077 0.25,-0.077C0.334,-0.077 0.376,-0.101 0.376,-0.149C0.376,-0.165 0.37,-0.178 0.359,-0.187C0.348,-0.196 0.334,-0.203 0.317,-0.208C0.3,-0.212 0.275,-0.217 0.244,-0.222C0.201,-0.229 0.167,-0.236 0.14,-0.245C0.113,-0.254 0.089,-0.268 0.07,-0.289C0.051,-0.31 0.041,-0.339 0.041,-0.376C0.041,-0.424 0.061,-0.462 0.101,-0.492C0.141,-0.521 0.195,-0.535 0.262,-0.535C0.297,-0.535 0.333,-0.531 0.368,-0.522C0.403,-0.513 0.432,-0.502 0.455,-0.487L0.414,-0.411C0.371,-0.439 0.32,-0.453 0.261,-0.453C0.22,-0.453 0.189,-0.446 0.168,-0.433C0.147,-0.42 0.136,-0.402 0.136,-0.38C0.136,-0.363 0.142,-0.349 0.154,-0.339C0.166,-0.329 0.181,-0.322 0.199,-0.317C0.216,-0.312 0.241,-0.307 0.273,-0.301C0.316,-0.294 0.35,-0.286 0.377,-0.278C0.403,-0.269 0.425,-0.255 0.444,-0.235C0.463,-0.215 0.472,-0.187 0.472,-0.151C0.472,-0.103 0.452,-0.065 0.411,-0.037C0.37,-0.008 0.314,0.006 0.243,0.006Z" style="fill:rgb(10,8,57);fill-rule:nonzero;"/>
                    </g>
                    <g transform="matrix(76,0,0,76,1594.56,1382.45)">
                        <path d="M0.585,-0.53L0.585,-0L0.494,-0L0.494,-0.08C0.475,-0.053 0.449,-0.032 0.418,-0.017C0.386,-0.002 0.351,0.006 0.314,0.006C0.243,0.006 0.188,-0.013 0.147,-0.053C0.106,-0.092 0.086,-0.149 0.086,-0.225L0.086,-0.53L0.182,-0.53L0.182,-0.236C0.182,-0.185 0.194,-0.146 0.219,-0.12C0.244,-0.093 0.279,-0.08 0.325,-0.08C0.376,-0.08 0.416,-0.095 0.445,-0.126C0.474,-0.157 0.489,-0.2 0.489,-0.256L0.489,-0.53L0.585,-0.53Z" style="fill:rgb(10,8,57);fill-rule:nonzero;"/>
                    </g>
                    <g transform="matrix(76,0,0,76,1644.57,1382.45)">
                        <path d="M0.754,-0.535C0.821,-0.535 0.873,-0.516 0.913,-0.477C0.951,-0.438 0.971,-0.381 0.971,-0.305L0.971,-0L0.875,-0L0.875,-0.294C0.875,-0.345 0.863,-0.384 0.84,-0.41C0.816,-0.436 0.782,-0.449 0.738,-0.449C0.689,-0.449 0.651,-0.434 0.622,-0.404C0.593,-0.373 0.579,-0.33 0.579,-0.273L0.579,-0L0.483,-0L0.483,-0.294C0.483,-0.345 0.471,-0.384 0.448,-0.41C0.424,-0.436 0.39,-0.449 0.346,-0.449C0.297,-0.449 0.259,-0.434 0.23,-0.404C0.201,-0.373 0.187,-0.33 0.187,-0.273L0.187,-0L0.091,-0L0.091,-0.53L0.183,-0.53L0.183,-0.451C0.202,-0.478 0.228,-0.499 0.259,-0.514C0.29,-0.528 0.326,-0.535 0.366,-0.535C0.407,-0.535 0.444,-0.527 0.476,-0.51C0.508,-0.493 0.533,-0.469 0.55,-0.437C0.57,-0.468 0.598,-0.492 0.634,-0.509C0.669,-0.526 0.709,-0.535 0.754,-0.535Z" style="fill:rgb(10,8,57);fill-rule:nonzero;"/>
                    </g>
                    <g transform="matrix(76,0,0,76,1723.45,1382.45)">
                        <path d="M0.754,-0.535C0.821,-0.535 0.873,-0.516 0.913,-0.477C0.951,-0.438 0.971,-0.381 0.971,-0.305L0.971,-0L0.875,-0L0.875,-0.294C0.875,-0.345 0.863,-0.384 0.84,-0.41C0.816,-0.436 0.782,-0.449 0.738,-0.449C0.689,-0.449 0.651,-0.434 0.622,-0.404C0.593,-0.373 0.579,-0.33 0.579,-0.273L0.579,-0L0.483,-0L0.483,-0.294C0.483,-0.345 0.471,-0.384 0.448,-0.41C0.424,-0.436 0.39,-0.449 0.346,-0.449C0.297,-0.449 0.259,-0.434 0.23,-0.404C0.201,-0.373 0.187,-0.33 0.187,-0.273L0.187,-0L0.091,-0L0.091,-0.53L0.183,-0.53L0.183,-0.451C0.202,-0.478 0.228,-0.499 0.259,-0.514C0.29,-0.528 0.326,-0.535 0.366,-0.535C0.407,-0.535 0.444,-0.527 0.476,-0.51C0.508,-0.493 0.533,-0.469 0.55,-0.437C0.57,-0.468 0.598,-0.492 0.634,-0.509C0.669,-0.526 0.709,-0.535 0.754,-0.535Z" style="fill:rgb(10,8,57);fill-rule:nonzero;"/>
                    </g>
                    <g transform="matrix(76,0,0,76,1802.57,1382.45)">
                        <path d="M0.57,-0.262C0.57,-0.255 0.569,-0.245 0.568,-0.233L0.138,-0.233C0.144,-0.186 0.165,-0.149 0.2,-0.121C0.235,-0.092 0.278,-0.078 0.33,-0.078C0.393,-0.078 0.444,-0.099 0.483,-0.142L0.536,-0.08C0.512,-0.052 0.482,-0.031 0.447,-0.016C0.411,-0.001 0.371,0.006 0.327,0.006C0.271,0.006 0.221,-0.006 0.178,-0.029C0.135,-0.051 0.101,-0.084 0.078,-0.125C0.054,-0.166 0.042,-0.213 0.042,-0.265C0.042,-0.316 0.054,-0.363 0.077,-0.404C0.099,-0.445 0.131,-0.478 0.172,-0.501C0.212,-0.524 0.257,-0.535 0.308,-0.535C0.359,-0.535 0.404,-0.524 0.444,-0.501C0.483,-0.478 0.514,-0.445 0.537,-0.404C0.559,-0.363 0.57,-0.315 0.57,-0.262ZM0.308,-0.454C0.262,-0.454 0.224,-0.44 0.193,-0.412C0.162,-0.384 0.143,-0.347 0.138,-0.302L0.478,-0.302C0.473,-0.347 0.455,-0.383 0.424,-0.412C0.393,-0.44 0.354,-0.454 0.308,-0.454Z" style="fill:rgb(10,8,57);fill-rule:nonzero;"/>
                    </g>
                    <g transform="matrix(76,0,0,76,1847.64,1382.45)">
                        <path d="M0.183,-0.441C0.2,-0.472 0.224,-0.495 0.257,-0.511C0.29,-0.527 0.329,-0.535 0.376,-0.535L0.376,-0.442C0.371,-0.443 0.363,-0.443 0.354,-0.443C0.302,-0.443 0.261,-0.428 0.232,-0.397C0.202,-0.366 0.187,-0.321 0.187,-0.264L0.187,-0L0.091,-0L0.091,-0.53L0.183,-0.53L0.183,-0.441Z" style="fill:rgb(10,8,57);fill-rule:nonzero;"/>
                    </g>
                    <g transform="matrix(76,0,0,76,1557.93,1464.45)">
                        <path d="M0.318,0.006C0.265,0.006 0.218,-0.006 0.176,-0.029C0.134,-0.052 0.101,-0.085 0.078,-0.126C0.054,-0.167 0.042,-0.213 0.042,-0.265C0.042,-0.317 0.054,-0.364 0.078,-0.405C0.101,-0.446 0.134,-0.478 0.176,-0.501C0.218,-0.524 0.265,-0.535 0.318,-0.535C0.371,-0.535 0.418,-0.524 0.46,-0.501C0.501,-0.478 0.534,-0.446 0.558,-0.405C0.581,-0.364 0.593,-0.317 0.593,-0.265C0.593,-0.213 0.581,-0.167 0.558,-0.126C0.534,-0.085 0.501,-0.052 0.46,-0.029C0.418,-0.006 0.371,0.006 0.318,0.006ZM0.318,-0.078C0.352,-0.078 0.383,-0.086 0.41,-0.102C0.437,-0.117 0.458,-0.139 0.473,-0.168C0.488,-0.196 0.496,-0.228 0.496,-0.265C0.496,-0.302 0.488,-0.334 0.473,-0.363C0.458,-0.391 0.437,-0.413 0.41,-0.428C0.383,-0.443 0.352,-0.451 0.318,-0.451C0.284,-0.451 0.254,-0.443 0.227,-0.428C0.2,-0.413 0.178,-0.391 0.163,-0.363C0.147,-0.334 0.139,-0.302 0.139,-0.265C0.139,-0.228 0.147,-0.196 0.163,-0.168C0.178,-0.139 0.2,-0.117 0.227,-0.102C0.254,-0.086 0.284,-0.078 0.318,-0.078Z" style="fill:rgb(10,8,57);fill-rule:nonzero;"/>
                    </g>
                    <g transform="matrix(76,0,0,76,1605.35,1464.45)">
                        <path d="M0.285,-0.669C0.228,-0.669 0.199,-0.638 0.199,-0.576L0.199,-0.53L0.353,-0.53L0.353,-0.451L0.201,-0.451L0.201,-0L0.105,-0L0.105,-0.451L0.015,-0.451L0.015,-0.53L0.105,-0.53L0.105,-0.577C0.105,-0.63 0.12,-0.671 0.151,-0.702C0.182,-0.733 0.225,-0.748 0.28,-0.748C0.301,-0.748 0.321,-0.745 0.34,-0.74C0.359,-0.735 0.375,-0.727 0.388,-0.717L0.359,-0.644C0.337,-0.661 0.312,-0.669 0.285,-0.669Z" style="fill:rgb(10,8,57);fill-rule:nonzero;"/>
                    </g>
                    <g transform="matrix(76,0,0,76,1651.41,1464.45)">
                        <path d="M0.322,0.006C0.268,0.006 0.22,-0.006 0.178,-0.029C0.135,-0.052 0.102,-0.085 0.078,-0.126C0.054,-0.167 0.042,-0.213 0.042,-0.265C0.042,-0.317 0.054,-0.364 0.078,-0.405C0.102,-0.446 0.135,-0.478 0.178,-0.501C0.22,-0.524 0.268,-0.535 0.322,-0.535C0.37,-0.535 0.413,-0.525 0.451,-0.506C0.488,-0.487 0.517,-0.459 0.538,-0.422L0.465,-0.375C0.448,-0.4 0.428,-0.419 0.403,-0.432C0.378,-0.445 0.351,-0.451 0.321,-0.451C0.286,-0.451 0.255,-0.443 0.228,-0.428C0.2,-0.413 0.178,-0.391 0.163,-0.363C0.147,-0.334 0.139,-0.302 0.139,-0.265C0.139,-0.228 0.147,-0.195 0.163,-0.167C0.178,-0.138 0.2,-0.116 0.228,-0.101C0.255,-0.086 0.286,-0.078 0.321,-0.078C0.351,-0.078 0.378,-0.084 0.403,-0.097C0.428,-0.11 0.448,-0.129 0.465,-0.154L0.538,-0.108C0.517,-0.071 0.488,-0.043 0.451,-0.024C0.413,-0.004 0.37,0.006 0.322,0.006Z" style="fill:rgb(10,8,57);fill-rule:nonzero;"/>
                    </g>
                    <g transform="matrix(76,0,0,76,1692.83,1464.45)">
                        <path d="M0.318,0.006C0.265,0.006 0.218,-0.006 0.176,-0.029C0.134,-0.052 0.101,-0.085 0.078,-0.126C0.054,-0.167 0.042,-0.213 0.042,-0.265C0.042,-0.317 0.054,-0.364 0.078,-0.405C0.101,-0.446 0.134,-0.478 0.176,-0.501C0.218,-0.524 0.265,-0.535 0.318,-0.535C0.371,-0.535 0.418,-0.524 0.46,-0.501C0.501,-0.478 0.534,-0.446 0.558,-0.405C0.581,-0.364 0.593,-0.317 0.593,-0.265C0.593,-0.213 0.581,-0.167 0.558,-0.126C0.534,-0.085 0.501,-0.052 0.46,-0.029C0.418,-0.006 0.371,0.006 0.318,0.006ZM0.318,-0.078C0.352,-0.078 0.383,-0.086 0.41,-0.102C0.437,-0.117 0.458,-0.139 0.473,-0.168C0.488,-0.196 0.496,-0.228 0.496,-0.265C0.496,-0.302 0.488,-0.334 0.473,-0.363C0.458,-0.391 0.437,-0.413 0.41,-0.428C0.383,-0.443 0.352,-0.451 0.318,-0.451C0.284,-0.451 0.254,-0.443 0.227,-0.428C0.2,-0.413 0.178,-0.391 0.163,-0.363C0.147,-0.334 0.139,-0.302 0.139,-0.265C0.139,-0.228 0.147,-0.196 0.163,-0.168C0.178,-0.139 0.2,-0.117 0.227,-0.102C0.254,-0.086 0.284,-0.078 0.318,-0.078Z" style="fill:rgb(10,8,57);fill-rule:nonzero;"/>
                    </g>
                    <g transform="matrix(76,0,0,76,1740.63,1464.45)">
                        <path d="M0.591,-0.742L0.591,-0L0.499,-0L0.499,-0.084C0.478,-0.055 0.451,-0.032 0.418,-0.017C0.385,-0.002 0.349,0.006 0.31,0.006C0.259,0.006 0.213,-0.005 0.172,-0.028C0.131,-0.051 0.099,-0.083 0.077,-0.124C0.054,-0.165 0.042,-0.212 0.042,-0.265C0.042,-0.318 0.054,-0.365 0.077,-0.406C0.099,-0.447 0.131,-0.478 0.172,-0.501C0.213,-0.524 0.259,-0.535 0.31,-0.535C0.348,-0.535 0.383,-0.528 0.415,-0.514C0.447,-0.499 0.474,-0.478 0.495,-0.45L0.495,-0.742L0.591,-0.742ZM0.318,-0.078C0.351,-0.078 0.382,-0.086 0.409,-0.102C0.436,-0.117 0.458,-0.139 0.473,-0.168C0.488,-0.196 0.496,-0.228 0.496,-0.265C0.496,-0.302 0.488,-0.334 0.473,-0.363C0.458,-0.391 0.436,-0.413 0.409,-0.428C0.382,-0.443 0.351,-0.451 0.318,-0.451C0.284,-0.451 0.254,-0.443 0.227,-0.428C0.2,-0.413 0.178,-0.391 0.163,-0.363C0.147,-0.334 0.139,-0.302 0.139,-0.265C0.139,-0.228 0.147,-0.196 0.163,-0.168C0.178,-0.139 0.2,-0.117 0.227,-0.102C0.254,-0.086 0.284,-0.078 0.318,-0.078Z" style="fill:rgb(10,8,57);fill-rule:nonzero;"/>
                    </g>
                    <g transform="matrix(76,0,0,76,1792.54,1464.45)">
                        <path d="M0.57,-0.262C0.57,-0.255 0.569,-0.245 0.568,-0.233L0.138,-0.233C0.144,-0.186 0.165,-0.149 0.2,-0.121C0.235,-0.092 0.278,-0.078 0.33,-0.078C0.393,-0.078 0.444,-0.099 0.483,-0.142L0.536,-0.08C0.512,-0.052 0.482,-0.031 0.447,-0.016C0.411,-0.001 0.371,0.006 0.327,0.006C0.271,0.006 0.221,-0.006 0.178,-0.029C0.135,-0.051 0.101,-0.084 0.078,-0.125C0.054,-0.166 0.042,-0.213 0.042,-0.265C0.042,-0.316 0.054,-0.363 0.077,-0.404C0.099,-0.445 0.131,-0.478 0.172,-0.501C0.212,-0.524 0.257,-0.535 0.308,-0.535C0.359,-0.535 0.404,-0.524 0.444,-0.501C0.483,-0.478 0.514,-0.445 0.537,-0.404C0.559,-0.363 0.57,-0.315 0.57,-0.262ZM0.308,-0.454C0.262,-0.454 0.224,-0.44 0.193,-0.412C0.162,-0.384 0.143,-0.347 0.138,-0.302L0.478,-0.302C0.473,-0.347 0.455,-0.383 0.424,-0.412C0.393,-0.44 0.354,-0.454 0.308,-0.454Z" style="fill:rgb(10,8,57);fill-rule:nonzero;"/>
                    </g>
                </g>
                <g transform="matrix(0.803749,-0.594969,-0.594969,-0.803749,1453.71,1395.87)">
                    <path d="M-17.117,-5.646C-33.029,-5.646 -45.886,7.212 -45.887,23.123C-45.887,39.035 -33.029,51.893 -17.117,51.893C-1.205,51.893 11.652,39.035 11.652,23.123C11.652,7.211 -1.205,-5.646 -17.117,-5.646" style="fill:rgb(250,79,51);fill-rule:nonzero;"/>
                </g>
                <g transform="matrix(1,0,0,1,1429.62,1182.26)">
                    <path d="M0,147.153C-8.642,150.281 -17.69,151.843 -26.938,151.8C-37.084,151.754 -46.973,149.777 -56.329,145.926C-66.019,141.938 -74.699,136.115 -82.127,128.618C-89.556,121.12 -95.299,112.386 -99.196,102.661C-102.961,93.269 -104.846,83.363 -104.799,73.217C-104.752,63.072 -102.775,53.183 -98.925,43.827C-94.937,34.137 -89.113,25.458 -81.616,18.029C-74.118,10.6 -65.386,4.857 -55.659,0.959C-46.267,-2.803 -36.361,-4.69 -26.216,-4.643C-16.07,-4.596 -6.182,-2.619 3.175,1.231C12.864,5.218 21.544,11.042 28.973,18.54L-2.424,49.647C-8.831,43.18 -17.353,39.595 -26.42,39.554C-35.486,39.512 -44.041,43.017 -50.508,49.425C-56.975,55.833 -60.56,64.355 -60.602,73.422C-60.644,82.488 -57.138,91.043 -50.73,97.51C-44.323,103.977 -35.802,107.561 -26.734,107.603C-17.668,107.645 -9.112,104.139 -2.646,97.732C3.821,91.325 7.405,82.802 7.447,73.736L51.645,73.94C51.598,84.086 49.621,93.974 45.771,103.331C41.783,113.02 35.959,121.7 28.462,129.129C20.964,136.557 12.231,142.3 2.505,146.198C1.675,146.531 0.839,146.85 0,147.153" style="fill:rgb(73,215,172);fill-rule:nonzero;"/>
                </g>
                <g transform="matrix(1,0,0,1,1321.85,1255.5)">
                    <path d="M0,249.04C-2.705,250.019 -5.47,250.851 -8.289,251.534C-18.225,253.94 -28.402,254.394 -38.541,252.88C-48.679,251.366 -58.281,247.961 -67.081,242.758C-76.194,237.37 -84.031,230.292 -90.376,221.722C-104.108,203.17 -109.049,179.637 -103.93,157.155L-59.259,167.327C-61.408,176.769 -59.329,186.66 -53.553,194.463C-48.265,201.607 -40.531,206.261 -31.777,207.567C-23.022,208.874 -14.268,206.682 -7.125,201.394C0.019,196.106 4.672,188.373 5.979,179.618C7.286,170.864 5.094,162.109 -0.194,154.966C-0.325,154.789 -0.45,154.625 -0.575,154.461C-4.831,148.927 -10.849,144.497 -30.67,139.628C-62.901,131.711 -86.635,102.884 -89.144,69.686C-89.18,69.198 -89.212,68.716 -89.24,68.231C-90.106,53.111 -86.667,38.18 -79.295,25.042C-72.128,12.271 -61.584,1.761 -48.804,-5.354L-26.521,34.678C-31.892,37.667 -36.325,42.089 -39.342,47.464C-42.428,52.963 -43.866,59.235 -43.501,65.603C-43.489,65.811 -43.475,66.025 -43.459,66.239C-42.417,80.019 -32.934,93.21 -17.892,97.353C-3.245,101.388 4.98,102.479 15.547,108.251C25.151,113.497 31.181,119.901 35.745,126.537C36.025,126.943 36.343,127.321 36.636,127.718C42.973,136.278 47.453,145.841 49.945,156.13C52.352,166.065 52.805,176.244 51.291,186.382C49.778,196.52 46.373,206.123 41.17,214.923C35.781,224.035 28.704,231.873 20.134,238.217C13.912,242.822 7.166,246.446 0,249.04" style="fill:rgb(10,8,57);fill-rule:nonzero;"/>
                </g>
                <g transform="matrix(1,0,0,1,1186.91,1384.7)">
                    <path d="M0,-92.06C-12.163,-108.493 -29.971,-119.201 -50.142,-122.211C-62.843,-124.107 -75.539,-122.81 -87.304,-118.552C-94.222,-116.049 -100.817,-112.521 -106.903,-108.017C-123.335,-95.854 -134.042,-78.046 -137.053,-57.875C-140.064,-37.705 -135.023,-17.546 -122.859,-1.115C-110.696,15.318 -92.888,26.026 -72.718,29.037C-52.547,32.047 -32.389,27.006 -15.957,14.842C0.476,2.679 11.184,-15.128 14.194,-35.299C17.205,-55.47 12.164,-75.628 0,-92.06" style="fill:rgb(252,183,15);fill-rule:nonzero;"/>
                </g>
            </g>
        </g>
    </g>
</svg>
