<?xml version="1.0" encoding="UTF-8"?>
<svg width="453px" height="109px" viewBox="0 0 453 109" version="1.1" xmlns="http://www.w3.org/2000/svg" xmlns:xlink="http://www.w3.org/1999/xlink">
    <title>logo-onwheels-3</title>
    <g id="Page-1" stroke="none" stroke-width="1" fill="none" fill-rule="evenodd">
        <g id="logo-onwheels-3" transform="translate(0.017125, 0.072336)" fill="#000000" fill-rule="nonzero">
            <path d="M65.4828748,107.416744 C90.6925848,102.100394 108.909805,79.6755443 108.968224,53.8877633 C109.022595,29.7958833 91.7677648,7.55260528 68.3385348,1.51185728 C60.6740058,-0.464282722 48.2142718,-0.509333722 40.9904368,1.41297728 C17.3075658,7.71514028 0.0837757717,30.0293693 0.000118763125,54.5177043 C-0.0227612283,61.2603083 3.26390477,73.8318643 6.71102277,80.1865743 C14.2589638,94.1010843 29.8200548,105.242254 45.3240528,107.832104 C53.1263168,109.135434 57.7885178,109.039364 65.4828748,107.416744 Z M41.7308438,86.5009143 C32.1694148,83.0887743 25.9828748,74.1311943 25.9828748,63.6992013 C25.9828748,56.5167623 27.9257748,51.6430553 32.8681618,46.4276643 L36.6587778,42.4276643 L35.6699878,31.0799043 C34.5579838,18.3180913 34.8096748,17.7063423 40.9828748,18.1666723 L44.4828748,18.4276643 L45.4828748,28.3967263 L46.4828748,38.3657883 L51.0738418,38.0809773 C53.5988738,37.9243313 59.2238738,37.4367713 63.5738418,36.9975113 C67.9238148,36.5582503 71.7614448,36.4753373 72.1019348,36.8132603 C72.4424148,37.1511823 73.2480848,42.8083433 73.8923248,49.3847283 C74.5365648,55.9611133 75.2360648,61.5141873 75.4467748,61.7248933 C75.6574748,61.9355993 80.1887248,61.7094233 85.5162148,61.2222813 C96.1447948,60.2504093 95.8525948,60.1085553 96.2385548,66.4276643 L96.4828748,70.4276643 L84.5288248,71.5398043 C76.5334948,72.2836543 72.4335448,73.0756643 72.1482948,73.9314143 C71.1440448,76.9441443 64.0991268,83.4205843 59.4828748,85.5748143 C53.8371698,88.2094543 47.4519208,88.5425643 41.7308438,86.5009143 L41.7308438,86.5009143 Z M57.9210858,76.0639143 C70.1472748,67.2394133 64.7336608,48.9276643 49.8986238,48.9276643 C39.2153138,48.9276643 31.6364438,60.5952453 36.3878608,69.7273243 C40.7447808,78.1011943 50.9412908,81.1017243 57.9210858,76.0639143 L57.9210858,76.0639143 Z M143.201825,75.8836543 C147.705985,74.6327243 152.458735,70.7932783 154.745105,66.5585483 C157.127675,62.1456353 157.127675,45.7096933 154.745105,41.2967803 C149.535215,31.6472153 136.641335,28.2747053 127.848115,34.2616273 C121.696625,38.4499073 120.518085,41.1102373 120.130035,51.6836763 C119.935975,56.9714553 120.263435,62.9207223 120.857715,64.9042683 C122.200905,69.3874153 126.552015,73.6561143 131.620135,75.4628543 C136.334315,77.1434043 138.396155,77.2183243 143.201825,75.8836543 L143.201825,75.8836543 Z M132.055455,65.2928053 C130.318155,63.0841843 129.982875,61.2456603 129.982875,53.9276643 C129.982875,43.1915323 131.813965,39.9180283 137.805455,39.942836 C144.413335,39.9704923 145.982875,42.6546563 145.982875,53.9276643 C145.982875,65.2006723 144.413335,67.8848363 137.805455,67.9125088 C135.012965,67.9239813 133.629295,67.2936183 132.055455,65.2928053 Z M450.095475,71.1466343 C452.859535,67.9985453 453.149485,67.0918603 452.695665,63.0155573 C452.053995,57.2520013 448.344585,53.8360943 438.483455,49.9278943 C430.839275,46.8983253 428.853205,44.9481803 430.590425,42.1776643 C431.319845,41.0143813 432.705765,39.0047178 435.773565,38.8029948 C439.999165,38.5251418 441.954085,39.8397043 442.540875,42.1776643 C443.118785,44.4802663 442.680265,44.9276643 447.091285,44.9276643 C451.766285,44.9276643 451.981895,44.8059023 451.960635,42.1776643 C451.872735,31.3067833 432.330555,27.3799883 423.293275,36.4172613 C420.596995,39.1135433 419.982875,40.5068163 419.982875,43.9276643 C419.982875,49.6402263 424.158695,53.7014553 433.807065,57.3724883 C438.935635,59.3238173 441.452865,60.8650693 442.204085,62.5138243 C443.857745,66.1432063 441.891036,69.9176448 435.926426,69.9176448 C431.328706,69.9176448 429.494959,68.2569641 428.446229,65.4785631 C427.405549,62.7214801 428.157295,61.9276643 423.763635,61.9276643 C419.610935,61.9276643 418.982875,62.1969313 418.982875,63.9773243 C418.982875,67.4231163 421.844855,71.8049343 425.243325,73.5623543 C431.957055,77.0341543 435.728965,77.5240043 442.540875,75.8087443 C445.514665,75.0599343 448.013555,73.5178143 450.095475,71.1466343 Z M173.203845,62.9424983 L173.482875,49.9573333 L180.956025,62.9424983 L188.429165,75.9276643 L193.706025,75.9276643 L198.982875,75.9276643 L198.982875,53.9276643 L198.982875,31.9276643 L193.982875,31.9276643 L188.982875,31.9276643 L188.951075,45.6776643 C188.913975,61.7053083 189.537465,61.8313863 179.284495,43.7228763 L172.606085,31.9276643 L167.294485,31.9276643 L161.982875,31.9276643 L161.982875,53.9276643 L161.982875,75.9276643 L167.453845,75.9276643 L172.924825,75.9276643 L173.203845,62.9424983 Z M238.781015,72.6776643 C239.271695,70.8901643 240.714455,65.3776643 241.987155,60.4276643 C243.259845,55.4776643 244.573545,51.1061503 244.906485,50.7131893 C245.239425,50.3202283 247.026415,55.8327283 248.877585,62.9631893 L252.243345,75.9276643 L257.045725,75.9276643 C260.751285,75.9276643 261.968885,75.5279843 262.376935,74.1776643 C262.667805,73.2151643 264.721055,64.3276643 266.939735,54.4276643 C269.158415,44.5276643 271.215365,35.3911413 271.510735,34.1242793 C272.025515,31.9163773 271.829265,31.8334703 266.776605,32.1242793 L261.505425,32.4276643 L259.255775,44.9276643 C258.018475,51.8026643 256.870945,58.1026643 256.705715,58.9276643 C256.540485,59.7526643 255.383975,56.3776643 254.135685,51.4276643 C249.093665,31.4337953 249.324025,31.9276643 245.040275,31.9276643 L241.239585,31.9276643 L238.111235,43.7509043 C236.390635,50.2536853 234.982875,56.1036853 234.982875,56.7509043 C234.982875,57.3981223 234.613935,57.9276643 234.163005,57.9276643 C233.712075,57.9276643 232.333295,52.1988913 231.099065,45.1970573 C229.864825,38.1952233 228.708525,32.3199803 228.529505,32.1409623 C228.350485,31.9619453 225.975005,31.9532183 223.250655,32.1215723 L218.297285,32.4276643 L221.151115,44.9276643 C222.720725,51.8026643 224.955455,61.5901643 226.117185,66.6776643 L228.229425,75.9276643 L233.059145,75.9276643 C237.658395,75.9276643 237.931445,75.7725743 238.781015,72.6776643 Z M285.982875,67.4276643 L285.982875,58.9276643 L293.982875,58.9276643 L301.982875,58.9276643 L301.982875,67.4276643 L301.982875,75.9276643 L306.982875,75.9276643 L311.982875,75.9276643 L311.982875,53.9276643 L311.982875,31.9276643 L306.982875,31.9276643 L301.982875,31.9276643 L301.982875,40.9276643 L301.982875,49.9276643 L293.982875,49.9276643 L285.982875,49.9276643 L285.982875,40.9276643 L285.982875,31.9276643 L280.482875,31.9276643 L274.982875,31.9276643 L274.982875,53.9276643 L274.982875,75.9276643 L280.482875,75.9276643 L285.982875,75.9276643 L285.982875,67.4276643 Z M346.982875,71.9276643 L346.982875,67.9276643 L337.982875,67.9276643 L328.982875,67.9276643 L328.982875,62.4276643 L328.982875,56.9276643 L336.543245,56.9276643 L344.103605,56.9276643 L343.793245,53.1776643 L343.482875,49.4276643 L336.232875,49.1338543 L328.982875,48.8400453 L328.982875,44.3838543 L328.982875,39.9276643 L337.982875,39.9276643 L346.982875,39.9276643 L346.982875,35.9276643 L346.982875,31.9276643 L332.482875,31.9276643 L317.982875,31.9276643 L317.982875,53.9276643 L317.982875,75.9276643 L332.482875,75.9276643 L346.982875,75.9276643 L346.982875,71.9276643 Z M380.982875,71.9276643 L380.982875,67.9276643 L371.982875,67.9276643 L362.982875,67.9276643 L362.982875,62.4276643 L362.982875,56.9276643 L370.543245,56.9276643 L378.103605,56.9276643 L377.793245,53.1776643 L377.482875,49.4276643 L370.232875,49.1338543 L362.982875,48.8400453 L362.982875,44.3838543 L362.982875,39.9276643 L371.982875,39.9276643 L380.982875,39.9276643 L380.982875,35.9276643 L380.982875,31.9276643 L366.482875,31.9276643 L351.982875,31.9276643 L351.982875,53.9276643 L351.982875,75.9276643 L366.482875,75.9276643 L380.982875,75.9276643 L380.982875,71.9276643 Z M414.982875,71.9276643 L414.982875,67.9276643 L405.982875,67.9276643 L396.982875,67.9276643 L396.982875,49.9276643 L396.982875,31.9276643 L391.482875,31.9276643 L385.982875,31.9276643 L385.982875,53.9276643 L385.982875,75.9276643 L400.482875,75.9276643 L414.982875,75.9276643 L414.982875,71.9276643 Z" id="path309"></path>
        </g>
    </g>
</svg>