<?xml version="1.0" encoding="UTF-8"?>
<svg width="197px" height="50px" viewBox="0 0 197 50" version="1.1" xmlns="http://www.w3.org/2000/svg" xmlns:xlink="http://www.w3.org/1999/xlink">
    <!-- Generator: Sketch 61 (89581) - https://sketch.com -->
    <title>logo ahs</title>
    <desc>Created with Sketch.</desc>
    <g id="Symbols" stroke="none" stroke-width="1" fill="none" fill-rule="evenodd">
        <g id="header" transform="translate(0.000000, -10.000000)">
            <g id="logo-ahs">
                <g transform="translate(0.000000, 10.000000)">
                    <polygon id="Fill-1" fill="#5AB031" points="27.2388889 26.9093056 34.0611111 26.9093056 34.0611111 20.0856944 27.2388889 20.0856944"></polygon>
                    <polygon id="Fill-2" fill="#5AB031" points="27.2388889 13.2968056 34.0611111 13.2968056 34.0611111 6.47319444 27.2388889 6.47319444"></polygon>
                    <path d="M13.6111111,20.1011111 L10.2111111,20.1011111 L10.2083333,20.1011111 C8.32916667,20.1011111 6.80555556,18.5775 6.80555556,16.6983333 C6.80555556,14.8177778 8.32916667,13.2941667 10.2083333,13.2941667 C12.0875,13.2941667 13.6111111,14.8177778 13.6111111,16.6983333 L13.6111111,20.1011111 Z M10.2083333,6.48722222 C4.57083333,6.48722222 0,11.0580556 0,16.6983333 C0,22.3372222 4.57083333,26.9094444 10.2083333,26.9094444 L20.4166667,26.9094444 L20.4166667,16.6983333 C20.4166667,11.0580556 15.8472222,6.48722222 10.2083333,6.48722222 L10.2083333,6.48722222 Z" id="Fill-3" fill="#EF7D00"></path>
                    <path d="M51.3334722,21.9647222 C50.49875,22.38 49.5279167,22.7286111 48.4848611,22.7286111 C47.02375,22.7286111 46.2945833,22.4508333 46.2945833,20.9911111 L46.2945833,20.68 C46.2945833,18.9758333 46.9209722,18.1411111 49.3529167,18.1411111 L51.3334722,18.1411111 L51.3334722,21.9647222 Z M48.7279167,6.46611111 C46.43625,6.46611111 44.0029167,6.88138889 42.7154167,7.19388889 C42.29875,7.29805556 42.0556944,7.57861111 42.0556944,7.96055556 L42.0556944,10.7730556 C42.0556944,11.2258333 42.3334722,11.4008333 42.6820833,11.4008333 L42.8556944,11.4008333 C43.9320833,11.2966667 46.39875,11.1577778 48.62375,11.1577778 C50.2584722,11.1577778 51.2293056,11.5744444 51.2293056,13.555 L51.2293056,14.805 L49.3529167,14.805 C43.41125,14.805 40.8029167,16.6133333 40.8029167,20.68 L40.8029167,20.9911111 C40.8029167,25.5105556 43.72375,26.9702778 46.7473611,26.9702778 C48.8306944,26.9702778 50.2223611,26.3786111 51.5793056,25.405 L51.5793056,25.9605556 C51.5793056,26.3425 51.8904167,26.6563889 52.27375,26.6563889 L56.1654167,26.6563889 C56.5459722,26.6563889 56.8598611,26.3425 56.8598611,25.9605556 L56.8598611,13.555 C56.8598611,8.48138889 53.7334722,6.46611111 48.7279167,6.46611111 L48.7279167,6.46611111 Z" id="Fill-5" fill="#009AD4"></path>
                    <path d="M61.7719444,26.65625 L65.9775,26.65625 C66.3594444,26.65625 66.6719444,26.3076389 66.6719444,25.9256944 L66.6719444,12.3381944 C67.9580556,11.6423611 69.4525,11.1215278 71.1538889,11.1215278 L71.4330556,11.1215278 C71.7455556,11.1215278 71.9538889,10.7729167 71.9538889,10.4618056 L71.9538889,7.15902778 C71.9538889,6.77708333 71.64,6.46597222 71.2580556,6.46597222 C69.59,6.46597222 67.8525,7.05486111 66.5663889,8.13263889 L66.5663889,7.43680556 C66.5663889,7.05486111 66.2552778,6.74375 65.8719444,6.74375 L61.7372222,6.74375 C61.3538889,6.74375 61.0413889,7.05486111 61.0413889,7.43680556 L61.0413889,25.9256944 C61.0413889,26.3076389 61.3886111,26.65625 61.7719444,26.65625" id="Fill-7" fill="#009AD4"></path>
                    <path d="M77.0361111,21.0254167 C77.0361111,25.9601389 79.05,26.97125 82.8722222,26.97125 C83.8833333,26.97125 84.5777778,26.8656944 85.6194444,26.6906944 C86.0347222,26.6226389 86.2777778,26.3420833 86.2777778,25.9976389 L86.2777778,23.2865278 C86.2777778,22.9045833 86.0027778,22.6948611 85.5513889,22.6948611 L83.8458333,22.6948611 C82.8027778,22.6948611 82.6986111,22.4518056 82.6986111,21.0615278 L82.6986111,10.9490278 L85.5513889,10.9490278 C85.9319444,10.9490278 86.2458333,10.6351389 86.2458333,10.2531944 L86.2458333,7.43652778 C86.2458333,7.05458333 85.9319444,6.74347222 85.5513889,6.74347222 L82.6986111,6.74347222 L82.6986111,3.06013889 C82.6986111,2.71152778 82.4222222,2.46847222 82.075,2.46847222 L81.9708333,2.46847222 L77.7305556,3.19763889 C77.3486111,3.26847222 77.0361111,3.51291667 77.0361111,3.89486111 L77.0361111,6.74347222 L74.2555556,6.74347222 C73.8736111,6.74347222 73.5263889,7.09208333 73.5263889,7.47402778 L73.5263889,9.76569444 C73.5263889,10.1476389 73.8736111,10.4281944 74.2555556,10.49625 L77.0361111,10.9490278 L77.0361111,21.0254167 Z" id="Fill-9" fill="#009AD4"></path>
                    <path d="M94.4880556,14.8398611 C94.4880556,12.30375 95.7741667,10.9829167 97.6852778,10.9829167 C99.6325,10.9829167 100.814444,12.2704167 100.814444,14.8398611 L100.814444,14.9815278 L94.4880556,14.9815278 L94.4880556,14.8398611 Z M97.6491667,26.9704167 C100.674167,26.9704167 102.551944,26.6898611 104.774167,26.1356944 C105.365833,25.9968056 105.506111,25.75375 105.506111,25.1968056 L105.506111,22.5565278 C105.506111,22.1745833 105.225556,21.9981944 104.845,21.9981944 L104.740833,21.9981944 C103.350556,22.1370833 100.256111,22.3120833 98.0686111,22.3120833 C95.3227778,22.3120833 94.4880556,20.5051389 94.4880556,18.5231944 L94.4880556,18.4551389 L105.574167,18.4551389 C106.026944,18.4551389 106.304722,18.14125 106.304722,17.6204167 L106.304722,15.6065278 C106.304722,10.3565278 103.42,6.46625 97.7213889,6.46625 C92.195,6.46625 88.9283333,10.0093056 88.9283333,15.6065278 L88.9283333,18.0370833 C88.9283333,24.7468056 93.445,26.9704167 97.6491667,26.9704167 L97.6491667,26.9704167 Z" id="Fill-11" fill="#009AD4"></path>
                    <path d="M117.331528,26.9702778 C121.400972,26.9702778 121.502361,26.4133333 122.371806,23.3202778 L126.749583,7.54111111 C126.784306,7.47305556 126.784306,7.40222222 126.784306,7.33416667 C126.784306,6.98694444 126.505139,6.74388889 126.194028,6.74388889 L121.605139,6.74388889 C121.257917,6.74388889 120.980139,7.055 120.877361,7.47305556 L117.885694,21.0952778 C117.782917,21.6161111 117.574583,21.8258333 117.331528,21.8258333 C117.087083,21.8258333 116.914861,21.6161111 116.810694,21.0952778 L113.821806,7.47305556 C113.71625,7.055 113.438472,6.74388889 113.09125,6.74388889 L108.50375,6.74388889 C108.19125,6.74388889 107.946806,6.98694444 107.946806,7.33416667 C107.946806,7.40222222 107.946806,7.47305556 107.982917,7.54111111 L112.325972,23.3202778 C113.194028,26.4133333 113.423194,26.9702778 117.331528,26.9702778" id="Fill-13" fill="#009AD4"></path>
                    <path d="M133.954722,14.8398611 C133.954722,12.30375 135.240833,10.9829167 137.151944,10.9829167 C139.097778,10.9829167 140.281111,12.2704167 140.281111,14.8398611 L140.281111,14.9815278 L133.954722,14.9815278 L133.954722,14.8398611 Z M137.115833,26.9704167 C140.139444,26.9704167 142.018611,26.6898611 144.240833,26.1356944 C144.8325,25.9968056 144.972778,25.75375 144.972778,25.1968056 L144.972778,22.5565278 C144.972778,22.1745833 144.692222,21.9981944 144.311667,21.9981944 L144.2075,21.9981944 C142.817222,22.1370833 139.722778,22.3120833 137.533889,22.3120833 C134.789444,22.3120833 133.954722,20.5051389 133.954722,18.5231944 L133.954722,18.4551389 L145.040833,18.4551389 C145.493611,18.4551389 145.771389,18.14125 145.771389,17.6204167 L145.771389,15.6065278 C145.771389,10.3565278 142.886667,6.46625 137.186667,6.46625 C131.661667,6.46625 128.393611,10.0093056 128.393611,15.6065278 L128.393611,18.0370833 C128.393611,24.7468056 132.911667,26.9704167 137.115833,26.9704167 L137.115833,26.9704167 Z" id="Fill-15" fill="#009AD4"></path>
                    <path d="M154.400278,0.000138888889 L150.161389,0.000138888889 C149.778056,0.000138888889 149.430833,0.314027778 149.430833,0.695972222 L149.430833,25.9265278 C149.430833,26.3084722 149.778056,26.6556944 150.161389,26.6556944 L154.400278,26.6556944 C154.782222,26.6556944 155.062778,26.3084722 155.062778,25.9265278 L155.062778,0.695972222 C155.062778,0.314027778 154.782222,0.000138888889 154.400278,0.000138888889" id="Fill-17" fill="#009AD4"></path>
                    <path d="M164.240417,15.3634722 C164.240417,12.92875 164.865417,11.1218056 167.334861,11.1218056 C168.166806,11.1218056 169.350139,11.19125 170.183472,11.2968056 L170.183472,22.1370833 C169.52375,22.24125 168.480694,22.3468056 167.334861,22.3468056 C164.865417,22.3468056 164.240417,20.5384722 164.240417,18.0731944 L164.240417,15.3634722 Z M167.334861,26.9704167 C170.008472,26.9704167 172.755694,26.5509722 174.737639,26.0648611 C175.67375,25.8579167 175.812639,25.6148611 175.812639,25.0579167 L175.812639,0.696805556 C175.812639,0.314861111 175.464028,0.000972222222 175.083472,0.000972222222 L170.877917,0.000972222222 C170.495972,0.000972222222 170.183472,0.314861111 170.183472,0.696805556 L170.183472,6.70930556 C169.176528,6.56763889 168.029306,6.46625 167.334861,6.46625 C161.459861,6.46625 158.61125,9.90375 158.61125,15.3634722 L158.61125,18.0731944 C158.61125,23.7023611 161.704306,26.9704167 167.334861,26.9704167 L167.334861,26.9704167 Z" id="Fill-19" fill="#009AD4"></path>
                    <path d="M191.360417,14.9816667 L185.032639,14.9816667 L185.032639,14.84 C185.032639,12.3038889 186.320139,10.9830556 188.23125,10.9830556 C190.177083,10.9830556 191.360417,12.2705556 191.360417,14.84 L191.360417,14.9816667 Z M188.265972,6.46638889 C182.740972,6.46638889 179.472917,10.0094444 179.472917,15.6066667 L179.472917,18.0372222 C179.472917,24.7469444 183.989583,26.9705556 188.196528,26.9705556 C191.21875,26.9705556 193.097917,26.69 195.321528,26.1358333 C195.910417,25.9969444 196.052083,25.7538889 196.052083,25.1969444 L196.052083,22.5566667 C196.052083,22.1747222 195.772917,21.9983333 195.389583,21.9983333 L195.286806,21.9983333 C193.896528,22.1372222 190.804861,22.3122222 188.613194,22.3122222 C185.86875,22.3122222 185.032639,20.5052778 185.032639,18.5233333 L185.032639,18.4552778 L196.121528,18.4552778 C196.572917,18.4552778 196.850694,18.1413889 196.850694,17.6205556 L196.850694,15.6066667 C196.850694,10.3566667 193.965972,6.46638889 188.265972,6.46638889 L188.265972,6.46638889 Z" id="Fill-21" fill="#009AD4"></path>
                    <path d="M117.659722,37.2519444 C116.936111,37.2519444 115.894444,37.4186111 115.086111,37.7741667 L115.086111,34.5727778 C115.086111,34.3866667 114.952778,34.2366667 114.768056,34.2366667 L113.926389,34.2366667 C113.741667,34.2366667 113.608333,34.3866667 113.608333,34.5727778 L113.608333,46.2797222 C113.608333,46.4644444 113.756944,46.6158333 113.926389,46.6158333 L114.75,46.6158333 C114.936111,46.6158333 115.086111,46.4477778 115.086111,46.2797222 L115.086111,39.0172222 C115.827778,38.6811111 116.886111,38.5463889 117.405556,38.5463889 C118.498611,38.5463889 119.205556,39.0672222 119.205556,40.7491667 L119.205556,46.2797222 C119.205556,46.4644444 119.356944,46.6158333 119.541667,46.6158333 L120.35,46.6158333 C120.533333,46.6158333 120.686111,46.4644444 120.686111,46.2797222 L120.686111,40.7491667 C120.686111,38.2769444 119.440278,37.2519444 117.659722,37.2519444" id="Fill-24" fill="#009AD4"></path>
                    <path d="M128.738333,42.63125 C128.738333,44.3631944 128.032778,45.4395833 126.468889,45.4395833 C124.889722,45.4395833 124.214722,44.3451389 124.214722,42.63125 L124.214722,41.3534722 C124.214722,39.6215278 124.905,38.5465278 126.468889,38.5465278 C128.049444,38.5465278 128.738333,39.6381944 128.738333,41.3534722 L128.738333,42.63125 Z M126.468889,37.2520833 C123.998056,37.2520833 122.736944,38.8826389 122.736944,41.3534722 L122.736944,42.63125 C122.736944,45.1034722 123.998056,46.7326389 126.468889,46.7326389 C128.939722,46.7326389 130.2175,45.1034722 130.2175,42.63125 L130.2175,41.3534722 C130.2175,38.8826389 128.939722,37.2520833 126.468889,37.2520833 L126.468889,37.2520833 Z" id="Fill-26" fill="#009AD4"></path>
                    <path d="M138.120139,40.3688889 C138.120139,41.3425 137.664583,42.0230556 135.849306,42.0230556 C133.917361,42.0230556 133.578472,41.0827778 133.578472,40.3688889 L133.578472,40.2397222 C133.578472,39.3313889 133.967361,38.505 135.849306,38.505 C137.664583,38.505 138.120139,39.2661111 138.120139,40.2397222 L138.120139,40.3688889 Z M134.303472,45.1522222 L136.202083,45.6230556 C137.717361,45.9952778 138.253472,46.255 138.253472,46.8869444 L138.253472,47.0175 C138.253472,47.9091667 137.815972,48.4272222 135.899306,48.4272222 C134.035417,48.4272222 133.478472,47.8605556 133.478472,46.9522222 L133.478472,46.8063889 C133.478472,45.9633333 133.814583,45.5577778 134.303472,45.1522222 L134.303472,45.1522222 Z M139.53125,37.3702778 L135.849306,37.3702778 C132.95625,37.3702778 132.11875,38.7966667 132.11875,40.2397222 L132.11875,40.3688889 C132.11875,41.1966667 132.370139,41.78 132.889583,42.2508333 C132.420139,42.5105556 132.200694,42.98 132.200694,43.4175 L132.200694,43.4327778 C132.200694,43.9369444 132.436806,44.4716667 132.974306,44.6994444 L133.09375,44.7480556 C132.536806,45.1522222 132.03125,45.8980556 132.03125,46.8063889 L132.03125,46.9522222 C132.03125,48.5411111 133.242361,49.53 135.899306,49.53 C138.657639,49.53 139.732639,48.5730556 139.732639,47.0175 L139.732639,46.8869444 C139.732639,45.3633333 138.152083,44.9105556 136.50625,44.5036111 L133.999306,43.8883333 C133.613194,43.7911111 133.478472,43.6438889 133.478472,43.3702778 C133.478472,43.1258333 133.613194,42.9480556 133.899306,42.8175 C134.386806,43.0119444 134.959028,43.1425 135.849306,43.1425 C138.438194,43.1425 139.58125,42.1536111 139.58125,40.3688889 L139.58125,40.2397222 C139.58125,39.3633333 139.311806,38.8772222 139.011806,38.5688889 L139.614583,38.455 C139.800694,38.4230556 139.91875,38.3577778 139.91875,38.1480556 L139.91875,37.7258333 C139.91875,37.5313889 139.732639,37.3702778 139.53125,37.3702778 L139.53125,37.3702778 Z" id="Fill-28" fill="#009AD4"></path>
                    <path d="M147.36625,41.3365278 L142.910694,41.3365278 L142.910694,41.1865278 C142.910694,39.3698611 143.717639,38.54625 145.163472,38.54625 C146.642639,38.54625 147.36625,39.2851389 147.36625,41.1865278 L147.36625,41.3365278 Z M145.163472,37.2518056 C142.759306,37.2518056 141.431528,38.7823611 141.431528,41.1865278 L141.431528,42.6976389 C141.431528,45.8254167 143.314861,46.7323611 145.246806,46.7323611 C146.373194,46.7323611 147.296806,46.6323611 148.256528,46.4476389 C148.525972,46.39625 148.592639,46.2795833 148.592639,46.0615278 L148.592639,45.4893056 C148.592639,45.32125 148.456528,45.2545833 148.323194,45.2545833 L148.239861,45.2545833 C147.464861,45.37125 146.221806,45.4393056 145.246806,45.4393056 C143.699583,45.4393056 142.910694,44.6990278 142.910694,42.6976389 L142.910694,42.4643056 L148.542639,42.4643056 C148.742639,42.4643056 148.860694,42.3115278 148.860694,42.0920833 L148.860694,41.1865278 C148.860694,38.7990278 147.617639,37.2518056 145.163472,37.2518056 L145.163472,37.2518056 Z" id="Fill-30" fill="#009AD4"></path>
                    <path d="M156.796806,44.2961111 C156.796806,43.3044444 156.344028,42.5822222 154.946806,41.7572222 L153.282917,40.7655556 C152.509306,40.3113889 152.123194,39.9919444 152.123194,39.4891667 C152.123194,38.6308333 152.745417,38.5113889 153.687083,38.5113889 C154.627361,38.5113889 155.705139,38.5975 156.294028,38.6475 L156.344028,38.6475 C156.510694,38.6475 156.627361,38.5641667 156.627361,38.3613889 L156.627361,37.8058333 C156.627361,37.6225 156.527361,37.5030556 156.306528,37.4697222 C155.519028,37.3363889 154.627361,37.2530556 153.687083,37.2530556 C151.95375,37.2530556 150.64125,37.7391667 150.64125,39.4891667 C150.64125,40.5475 151.332917,41.2697222 152.359306,41.8919444 L154.055139,42.9016667 C155.014861,43.4725 155.317639,43.7905556 155.317639,44.2961111 C155.317639,45.2044444 154.744028,45.4905556 153.652361,45.4905556 C153.048194,45.4905556 151.820417,45.4044444 151.014861,45.3044444 L150.945417,45.3044444 C150.77875,45.3044444 150.64125,45.4044444 150.64125,45.5572222 L150.64125,46.1447222 C150.64125,46.3294444 150.77875,46.4308333 150.996806,46.4808333 C151.820417,46.6836111 153.031528,46.7336111 153.652361,46.7336111 C155.535694,46.7336111 156.796806,46.01 156.796806,44.2961111" id="Fill-32" fill="#009AD4"></path>
                    <path d="M164.563194,46.1794444 L164.563194,45.5738889 C164.563194,45.4072222 164.429861,45.3211111 164.277083,45.3211111 L164.210417,45.3211111 C163.471528,45.4072222 162.949306,45.4405556 162.125694,45.4405556 C160.764583,45.4405556 160.022917,44.5322222 160.022917,42.6488889 L160.022917,41.3363889 C160.022917,39.4391667 160.78125,38.5475 162.125694,38.5475 C162.949306,38.5475 163.471528,38.5808333 164.210417,38.6641667 L164.277083,38.6641667 C164.429861,38.6641667 164.563194,38.5808333 164.563194,38.4127778 L164.563194,37.8072222 C164.563194,37.5725 164.496528,37.4877778 164.227083,37.4377778 C163.671528,37.3363889 162.899306,37.2530556 162.125694,37.2530556 C159.822917,37.2530556 158.545139,38.8669444 158.545139,41.3363889 L158.545139,42.6488889 C158.545139,45.1211111 159.839583,46.735 162.125694,46.735 C162.915972,46.735 163.671528,46.6488889 164.227083,46.5488889 C164.496528,46.4988889 164.563194,46.3961111 164.563194,46.1794444" id="Fill-34" fill="#009AD4"></path>
                    <path d="M170.565,37.2519444 C169.842778,37.2519444 168.799722,37.4186111 167.992778,37.7741667 L167.992778,34.5727778 C167.992778,34.3866667 167.858056,34.2366667 167.673333,34.2366667 L166.833056,34.2366667 C166.646944,34.2366667 166.513611,34.3866667 166.513611,34.5727778 L166.513611,46.2797222 C166.513611,46.4644444 166.663611,46.6158333 166.833056,46.6158333 L167.656667,46.6158333 C167.841389,46.6158333 167.992778,46.4477778 167.992778,46.2797222 L167.992778,39.0172222 C168.731667,38.6811111 169.792778,38.5463889 170.312222,38.5463889 C171.403889,38.5463889 172.112222,39.0672222 172.112222,40.7491667 L172.112222,46.2797222 C172.112222,46.4644444 172.262222,46.6158333 172.448333,46.6158333 L173.255278,46.6158333 C173.44,46.6158333 173.591389,46.4644444 173.591389,46.2797222 L173.591389,40.7491667 C173.591389,38.2769444 172.346944,37.2519444 170.565,37.2519444" id="Fill-36" fill="#009AD4"></path>
                    <path d="M181.643611,42.6319444 C181.643611,44.3625 180.938056,45.4388889 179.375556,45.4388889 C177.795,45.4388889 177.122778,44.3458333 177.122778,42.6319444 L177.122778,41.3541667 C177.122778,39.6222222 177.811667,38.5472222 179.375556,38.5472222 C180.954722,38.5472222 181.643611,39.6388889 181.643611,41.3541667 L181.643611,42.6319444 Z M183.122778,41.3541667 C183.122778,38.8833333 181.846389,37.2527778 179.375556,37.2527778 C176.903333,37.2527778 175.642222,38.8833333 175.642222,41.3541667 L175.642222,42.6319444 C175.642222,45.1027778 176.903333,46.7333333 179.375556,46.7333333 C181.846389,46.7333333 183.122778,45.1027778 183.122778,42.6319444 L183.122778,41.3541667 Z" id="Fill-38" fill="#009AD4"></path>
                    <path d="M190.872083,42.6319444 C190.872083,44.3625 190.166528,45.4388889 188.604028,45.4388889 C187.023472,45.4388889 186.35125,44.3458333 186.35125,42.6319444 L186.35125,41.3541667 C186.35125,39.6222222 187.040139,38.5472222 188.604028,38.5472222 C190.183194,38.5472222 190.872083,39.6388889 190.872083,41.3541667 L190.872083,42.6319444 Z M192.352639,41.3541667 C192.352639,38.8833333 191.074861,37.2527778 188.604028,37.2527778 C186.131806,37.2527778 184.872083,38.8833333 184.872083,41.3541667 L184.872083,42.6319444 C184.872083,45.1027778 186.131806,46.7333333 188.604028,46.7333333 C191.074861,46.7333333 192.352639,45.1027778 192.352639,42.6319444 L192.352639,41.3541667 Z" id="Fill-40" fill="#009AD4"></path>
                    <path d="M195.749444,34.2361111 L194.873056,34.2361111 C194.689722,34.2361111 194.570278,34.3861111 194.570278,34.5555556 L194.570278,46.2791667 C194.570278,46.4652778 194.707778,46.6152778 194.873056,46.6152778 L195.749444,46.6152778 C195.935556,46.6152778 196.052222,46.4486111 196.052222,46.2791667 L196.052222,34.5555556 C196.052222,34.3694444 195.914722,34.2361111 195.749444,34.2361111" id="Fill-42" fill="#009AD4"></path>
                </g>
            </g>
        </g>
    </g>
</svg>