<?xml version="1.0" encoding="UTF-8" standalone="no"?>
<svg
   xmlns:dc="http://purl.org/dc/elements/1.1/"
   xmlns:cc="http://creativecommons.org/ns#"
   xmlns:rdf="http://www.w3.org/1999/02/22-rdf-syntax-ns#"
   xmlns:svg="http://www.w3.org/2000/svg"
   xmlns="http://www.w3.org/2000/svg"
   xmlns:sodipodi="http://sodipodi.sourceforge.net/DTD/sodipodi-0.dtd"
   xmlns:inkscape="http://www.inkscape.org/namespaces/inkscape"
   version="1.1"
   id="svg986"
   xml:space="preserve"
   width="2000"
   height="600"
   viewBox="0 0 2000 599.99999"
   sodipodi:docname="circl-horizontal.svg"
   inkscape:version="1.0.2 (e86c8708, 2021-01-15)"><metadata
     id="metadata992"><rdf:RDF><cc:Work
         rdf:about=""><dc:format>image/svg+xml</dc:format><dc:type
           rdf:resource="http://purl.org/dc/dcmitype/StillImage" /><dc:title></dc:title></cc:Work></rdf:RDF></metadata><defs
     id="defs990"><clipPath
       clipPathUnits="userSpaceOnUse"
       id="clipPath1002"><path
         d="M 0,99.213 H 283.465 V 0 H 0 Z"
         id="path1000" /></clipPath></defs><sodipodi:namedview
     pagecolor="#ffffff"
     bordercolor="#666666"
     borderopacity="1"
     objecttolerance="10"
     gridtolerance="10"
     guidetolerance="10"
     inkscape:pageopacity="0"
     inkscape:pageshadow="2"
     inkscape:window-width="1440"
     inkscape:window-height="730"
     id="namedview988"
     showgrid="false"
     inkscape:zoom="0.46704817"
     inkscape:cx="865.6296"
     inkscape:cy="158.20932"
     inkscape:window-x="0"
     inkscape:window-y="25"
     inkscape:window-maximized="0"
     inkscape:current-layer="g994" /><g
     id="g994"
     inkscape:groupmode="layer"
     inkscape:label="cmyk-blauw2"
     transform="matrix(1.3333333,0,0,-1.3333333,0,132.28347)"><g
       id="g996"
       transform="matrix(6.2171716,0,0,6.2171716,-131.12179,-434.11839)"><g
         id="g998"
         clip-path="url(#clipPath1002)"><g
           id="g1004"
           transform="translate(134.7825,72.0476)"><path
             d="m 0,0 v -40.177 c 0,-2.589 -2.098,-4.687 -4.687,-4.687 v 0 c -2.588,0 -4.686,2.098 -4.686,4.687 V 0 Z"
             style="fill:#0050a0;fill-opacity:1;fill-rule:nonzero;stroke:none"
             id="path1006" /></g><g
           id="g1008"
           transform="translate(252.1018,35.6326)"><path
             d="m 0,0 h -13.506 v 36.416 h -9.373 V -3.761 c 0,-2.589 2.098,-4.687 4.687,-4.687 H 0 c 2.333,0 4.224,1.891 4.224,4.224 C 4.224,-1.891 2.333,0 0,0"
             style="fill:#0050a0;fill-opacity:1;fill-rule:nonzero;stroke:none"
             id="path1010" /></g><g
           id="g1012"
           transform="translate(160.1458,51.4299)"><path
             d="m 0,0 c 0,0 -3.795,0.018 -3.795,0.041 v 11.752 c 0,0.023 0.018,0.041 0.041,0.041 h 5.869 c 3.917,0 5.648,-2.502 5.648,-5.796 C 7.763,2.242 5.061,0 0,0 m 6.757,-6.296 c 7.831,2.231 10.437,7.896 10.437,12.909 0,8.133 -8.11,13.973 -16.554,13.973 -2.082,0 -13.809,0.001 -13.809,0.001 0,0 2.464,0 0,0 V -19.56 c 0,-2.588 2.098,-4.686 4.687,-4.686 2.588,0 4.687,2.098 4.687,4.686 v 12.314 h 0.402 L 8.05,-22.303 c 1.378,-1.864 4.017,-2.517 5.94,-1.223 2.018,1.358 2.477,4.107 1.047,6.042 0,0 -8.307,11.18 -8.28,11.188"
             style="fill:#0050a0;fill-opacity:1;fill-rule:nonzero;stroke:none"
             id="path1014" /></g><g
           id="g1016"
           transform="translate(250.3278,66.5331)"><path
             d="m 0,0 c 0.673,0 1.156,0.293 1.156,0.849 0,0.644 -0.571,0.819 -1.302,0.819 H -0.453 V 0 Z m 0.98,-0.907 1.814,-2.209 h -1.58 l -1.551,2.048 h -0.116 v -2.048 h -1.273 v 5.925 h 1.755 c 1.522,0 2.428,-0.775 2.428,-1.975 0,-0.863 -0.702,-1.521 -1.477,-1.741 m 3.716,0.703 c 0,2.457 -1.946,4.461 -4.462,4.461 -2.516,0 -4.462,-2.004 -4.462,-4.461 0,-2.444 1.946,-4.433 4.462,-4.433 2.516,0 4.462,1.989 4.462,4.433 m 1.302,0 c 0,-3.117 -2.546,-5.691 -5.764,-5.691 -3.218,0 -5.764,2.574 -5.764,5.691 0,3.13 2.546,5.72 5.764,5.72 3.218,0 5.764,-2.59 5.764,-5.72"
             style="fill:#0050a0;fill-opacity:1;fill-rule:nonzero;stroke:none"
             id="path1018" /></g><g
           id="g1020"
           transform="translate(209.313,36.0417)"><path
             d="m 0,0 c -8.298,-0.968 -15.752,5.766 -15.19,14.524 0.357,5.562 4.24,10.435 9.573,12.054 3.792,1.152 7.54,0.595 10.611,-1.103 l 5.514,6.97 C 5.649,35.558 -0.43,36.839 -6.653,35.416 -16.763,33.105 -24.087,23.871 -24.03,13.5 c 0.074,-13.599 11.92,-23.781 25.05,-22.25 2.677,0.312 5.18,1.106 7.468,2.234 2.2,1.085 3.013,3.819 1.71,6.089 C 8.989,1.681 6.527,2.293 4.181,1.19 2.894,0.585 1.49,0.174 0,0"
             style="fill:#0050a0;fill-opacity:1;fill-rule:nonzero;stroke:none"
             id="path1022" /></g><g
           id="g1024"
           transform="translate(105.4677,36.0417)"><path
             d="m 0,0 c -8.298,-0.968 -15.752,5.766 -15.19,14.524 0.357,5.562 4.24,10.435 9.573,12.054 3.792,1.152 7.54,0.595 10.611,-1.103 l 5.514,6.97 C 5.649,35.558 -0.43,36.839 -6.653,35.416 -16.763,33.105 -24.087,23.871 -24.03,13.5 c 0.074,-13.599 11.92,-23.781 25.05,-22.25 2.677,0.312 5.18,1.106 7.468,2.234 2.2,1.085 3.013,3.819 1.71,6.089 C 8.989,1.681 6.527,2.293 4.181,1.19 2.894,0.585 1.49,0.174 0,0"
             style="fill:#0050a0;fill-opacity:1;fill-rule:nonzero;stroke:none"
             id="path1026" /></g><g
           id="g1028"
           transform="translate(27.122,72.0488)"><path
             d="m 0,0 v -25.945 -1.878 c 0,-9.519 9.041,-17.088 20.116,-17.088 0.819,0 1.623,0.053 2.415,0.139 V 0 Z"
             style="fill:#0050a0;fill-opacity:1;fill-rule:nonzero;stroke:none"
             id="path1030" /></g><g
           id="g1032"
           transform="translate(50.6585,72.0488)"><path
             d="m 0,0 h -1.006 v -44.772 c 0.338,0.037 0.673,0.078 1.006,0.126 0.16,0.024 0.325,0.035 0.485,0.061 9.218,1.534 16.211,8.391 16.211,16.762 V -25.945 0 Z"
             style="fill:#00aeea;fill-opacity:1;fill-rule:nonzero;stroke:none"
             id="path1034" /></g><g
           id="g1036"
           transform="translate(47.244,61.5628)"><path
             d="M 0,0 7.379,-7.379 7.472,-7.472 9.936,-5.008 0.093,4.835 0,4.927 -9.855,-4.926 -9.947,-5.019 -7.484,-7.483 Z"
             style="fill:#ffffff;fill-opacity:1;fill-rule:nonzero;stroke:none"
             id="path1038" /></g><g
           id="g1040"
           transform="translate(47.2426,45.3699)"><path
             d="M 0,0 -5.159,5.15 -7.62,2.687 -2.467,-2.467 -6.979,-6.975 c -0.335,-0.33 -0.52,-0.771 -0.52,-1.24 0,-0.96 0.781,-1.741 1.741,-1.741 0.419,0 0.815,0.148 1.131,0.418 l 0.004,-0.004 4.618,4.618 4.512,-4.517 c 0.33,-0.335 0.77,-0.519 1.238,-0.519 0.96,0 1.741,0.781 1.741,1.741 0,0.472 -0.181,0.912 -0.509,1.239 L 2.46,-2.463 7.611,2.687 5.15,5.15 Z"
             style="fill:#ffffff;fill-opacity:1;fill-rule:nonzero;stroke:none"
             id="path1042" /></g></g></g></g></svg>
