<?xml version="1.0" encoding="UTF-8"?>
<svg width="381px" height="331px" viewBox="0 0 381 331" version="1.1" xmlns="http://www.w3.org/2000/svg" xmlns:xlink="http://www.w3.org/1999/xlink">
    <title>Group 2</title>
    <g id="Page-1" stroke="none" stroke-width="1" fill="none" fill-rule="evenodd">
        <g id="Group-2" transform="translate(0.350000, 0.644000)" fill="#0064CC" fill-rule="nonzero">
            <rect id="Rectangle" x="71.06" y="57.228" width="8.624" height="55.981"></rect>
            <rect id="Rectangle" x="53.82" y="57.228" width="8.623" height="55.981"></rect>
            <rect id="Rectangle" x="36.57" y="57.228" width="8.624" height="55.981"></rect>
            <rect id="Rectangle" x="19.32" y="57.228" width="8.624" height="55.981"></rect>
            <rect id="Rectangle" x="88.31" y="57.228" width="8.623" height="55.981"></rect>
            <rect id="Rectangle" x="105.56" y="57.228" width="8.624" height="55.981"></rect>
            <rect id="Rectangle" x="122.8" y="57.228" width="8.624" height="55.981"></rect>
            <rect id="Rectangle" x="10.49" y="121.833" width="129.764" height="8.63"></rect>
            <polygon id="Path" points="131.43 48.604 19.32 48.604 10.7 39.981 140.05 39.981"></polygon>
            <rect id="Rectangle" x="1.87" y="139.08" width="147.01" height="8.63"></rect>
            <polygon id="Path" points="148.88 26.032 75.38 -3.55271368e-15 1.87 26.032 1.87 35.19 75.38 9.16 148.88 35.19"></polygon>
            <polygon id="Path" points="73.24 215.508 54.66 215.508 54.66 243.181 46.03 243.181 46.03 182.207 54.66 182.207 54.66 208.193 73.24 208.193 73.24 182.207 81.87 182.207 81.87 243.181 73.24 243.181"></polygon>
            <path d="M262.22,274.503 C266.03,274.49 269.62,275.738 271.27,277.035 L271.27,269.263 C269.62,268.249 265.57,267.121 261.47,267.121 C250.02,267.121 243.72,273.631 243.72,283.073 C243.72,290.947 247.05,294.728 252.42,299.361 L257.33,303.602 C261.38,306.993 263.9,309.606 263.9,314.677 C263.9,320.607 259.98,322.956 254.1,322.956 C249.64,322.956 245.94,321.721 243.81,320.248 L243.81,328.157 C245.68,329.238 249.59,330.352 254.87,330.338131 C266.29,330.311 272.59,323.821 272.600022,314.387 C272.61,306.519 269.27,302.731 263.9,298.105 L258.99,293.857 C254.93,290.38 252.41,287.867 252.42,282.802 C252.44,276.846 256.33,274.517 262.22,274.503" id="Path"></path>
            <path d="M209.23,275.563 L209.23,297.052 L213.83,297.052 C220.58,297.052 225.09,295.634 225.09,286.26 C225.09,276.968 220.58,275.563 213.83,275.563 L209.23,275.563 Z M200.6,268.242 L214.67,268.242 C225.93,268.242 233.99,272.47 233.99,286.26 C233.99,295.917 229.31,300.603 223.4,302.765 L236.34,329.223 L226.49,329.223 L215.04,304.359 L209.23,304.359 L209.23,329.223 L200.6,329.223 L200.6,268.242 Z" id="Shape"></path>
            <path d="M1.87,310.835 L1.87,268.249 L10.5,268.249 L10.5,311.213 C10.5,320.222 13.6,322.842 19.88,322.842 C26.17,322.842 29.26,320.222 29.26,311.213 L29.26,268.249 L37.89,268.249 L37.89,310.835 C37.89,324.719 32.08,330.351 19.88,330.351 C7.5,330.351 1.87,324.909 1.87,310.835" id="Path"></path>
            <path d="M49.05,268.249 L59,268.249 L78.23,316.839 C77.57,311.868 77.01,306.053 77.01,300.61 L77.01,268.249 L85.27,268.249 L85.27,329.224 L75.32,329.224 L55.9,280.446 C56.65,285.416 57.31,291.325 57.31,296.863 L57.31,329.224 L49.05,329.224 L49.05,268.249 Z" id="Path"></path>
            <rect id="Rectangle" x="97.48" y="268.249" width="8.631" height="60.974"></rect>
            <path d="M114.13,268.249 L123.14,268.249 L130.83,299.956 C131.96,304.744 133.36,312.807 134.21,319.188 C135.05,312.807 136.46,304.744 137.77,299.956 L145.37,268.249 L154.09,268.249 L138.62,329.224 L129.61,329.224 L114.13,268.249 Z" id="Path"></path>
            <polygon id="Path" points="162.11 268.249 190.63 268.249 190.63 275.57 170.74 275.57 170.74 294.235 186.78 294.235 186.78 301.455 170.74 301.455 170.74 321.91 190.63 321.91 190.63 329.224 162.11 329.224"></polygon>
            <rect id="Rectangle" x="282.84" y="268.249" width="8.631" height="60.974"></rect>
            <path d="M0,212.698 C0,188.684 6.37,181.079 22.23,181.079 C26.73,181.079 31.51,182.302 33.58,183.524 L33.58,191.493 C31.33,190.183 27.01,188.772 22.88,188.772 C12.75,188.772 8.91,192.526 8.91,212.698 C8.91,232.674 11.63,236.8 20.45,236.8 C23.17,236.8 25.42,236.429 27.1,235.956 L27.1,215.601 L18.1,215.601 L18.1,208.288 L35.73,208.288 L35.73,241.21 C33.95,242.337 26.82,244.309 20.54,244.309 C4.03,244.309 0,235.679 0,212.698" id="Path"></path>
            <polygon id="Path" points="94.08 182.207 122.6 182.207 122.6 189.528 102.72 189.528 102.72 208.193 118.76 208.193 118.76 215.413 102.72 215.413 102.72 235.868 122.6 235.868 122.6 243.182 94.08 243.182"></polygon>
            <path d="M132.57,182.207 L142.52,182.207 L161.75,230.796 C161.09,225.826 160.53,220.011 160.53,214.568 L160.53,182.207 L168.78,182.207 L168.78,243.182 L158.84,243.182 L139.42,194.403 C140.17,199.374 140.83,205.283 140.83,210.82 L140.83,243.182 L132.57,243.182 L132.57,182.207 Z" id="Path"></path>
            <polygon id="Path" points="176.68 182.207 211.67 182.207 211.67 189.528 198.45 189.528 198.45 243.182 189.81 243.182 189.81 189.528 176.68 189.528"></polygon>
            <path d="M354.76,303.9 L338.06,268.249 L347.54,268.249 L354.76,284.666 C356.45,288.604 358.05,292.824 359.08,296.579 C360.2,292.824 361.89,288.604 363.58,284.666 L370.8,268.249 L380,268.249 L363.39,303.9 L363.39,329.224 L354.76,329.224 L354.76,303.9 Z" id="Path"></path>
            <polygon id="Path" points="299.67 268.249 334.66 268.249 334.66 275.57 321.43 275.57 321.43 329.224 312.8 329.224 312.8 275.57 299.67 275.57"></polygon>
        </g>
    </g>
</svg>